<svg width="243" height="180" viewBox="0 0 243 180" fill="none" xmlns="http://www.w3.org/2000/svg">
<path d="M117.285 9.87414C72.3043 10.6725 2.16749 5.53915 2.16749 5.53915C10.6124 76.9472 11.0428 115.356 0 179.42C96.399 173.32 149.71 173.34 243 179.42C236.499 106.953 234.33 37.8105 243 0C243 0 166.523 9.00016 117.285 9.87414Z" fill="#D3E8FF"/>
<path d="M216.99 13.2456C146.617 20.1186 106.3 21.7553 31.79 17.8214C30.4535 28.0257 26.7689 30.5867 16.8584 31.5489C21.8098 78.0103 22.7242 104.059 16.8584 150.52C25.8954 153.32 29.8634 156.782 29.8634 165.933C102.044 160.776 144.828 161.106 218.194 165.933C219.284 155.619 222.834 153.106 232.403 152.206C227.5 103.954 227.21 76.5763 230.718 27.2139C219.858 26.3555 216.64 23.4805 216.99 13.2456Z" stroke="black" stroke-width="1.92666"/>
<rect x="83.8096" y="65.5063" width="86.6997" height="3.37166" rx="1.68583" fill="#B9C7D2"/>
<rect x="49.1299" y="87.6628" width="157.023" height="3.37166" rx="1.68583" fill="#82939A"/>
<rect x="55.873" y="94.406" width="143.055" height="3.37166" rx="1.68583" fill="#82939A"/>
<rect x="49.1299" y="101.149" width="157.023" height="3.37166" rx="1.68583" fill="#82939A"/>
<rect x="85.2549" y="107.893" width="85.2547" height="3.37166" rx="1.68583" fill="#82939A"/>
<rect x="170.51" y="127.159" width="37.5699" height="3.37166" rx="1.68583" fill="#B9C7D2"/>
<rect x="177.253" y="133.903" width="22.1566" height="3.37166" rx="1.68583" fill="#B9C7D2"/>
<rect x="169.546" y="140.646" width="37.5699" height="3.37166" rx="1.68583" fill="#B9C7D2"/>
<rect x="42.3867" y="127.159" width="37.5699" height="3.37166" rx="1.68583" fill="#B9C7D2"/>
<rect x="49.1299" y="133.903" width="22.1566" height="3.37166" rx="1.68583" fill="#B9C7D2"/>
<rect x="41.4229" y="140.646" width="37.5699" height="3.37166" rx="1.68583" fill="#B9C7D2"/>
<path d="M57.1328 48.121C55.8265 48.121 54.6936 47.8782 53.7342 47.3927C52.7862 46.8956 52.0522 46.1847 51.532 45.2599C51.0118 44.3351 50.7517 43.2195 50.7517 41.9133C50.7517 40.607 51.0002 39.4914 51.4973 38.5666C52.0059 37.6418 52.7111 36.9367 53.6128 36.4512C54.526 35.9541 55.578 35.7056 56.7687 35.7056C57.8206 35.7056 58.6934 35.8963 59.387 36.2778C60.0921 36.6477 60.6181 37.1621 60.9649 37.821C61.3233 38.4799 61.5025 39.2313 61.5025 40.0752H60.7915C60.7337 39.7053 60.595 39.3354 60.3754 38.9655C60.1557 38.584 59.832 38.2661 59.4043 38.0118C58.9882 37.7574 58.4448 37.6303 57.7744 37.6303C57.0461 37.6303 56.4219 37.7979 55.9017 38.1331C55.393 38.4568 55 38.9192 54.7225 39.5203C54.4567 40.1099 54.3237 40.8093 54.3237 41.6185C54.3237 42.4392 54.4682 43.1559 54.7572 43.7686C55.0462 44.3697 55.4566 44.8379 55.9884 45.1732C56.5317 45.4968 57.1617 45.6587 57.8784 45.6587C58.5142 45.6587 59.046 45.5431 59.4737 45.3119C59.9014 45.0807 60.2309 44.7743 60.4621 44.3929C60.7048 43.9998 60.8609 43.5605 60.9302 43.075H62.8897C62.8434 43.9651 62.618 44.7975 62.2134 45.572C61.8088 46.3349 61.1903 46.9534 60.358 47.4274C59.5257 47.8898 58.4506 48.121 57.1328 48.121ZM61.5025 40.0752L60.8262 38.6533V36.0003H62.7509V40.0752H61.5025ZM64.2122 47.8262V46.1615H65.5127V37.665H64.2469V36.0003H68.8073V47.8262H64.2122ZM68.8073 47.8262V46.0575H75.6046V47.8262H68.8073ZM70.6107 44.4275C70.6107 43.7917 70.4835 43.3293 70.2292 43.0403C69.9749 42.7513 69.5761 42.6068 69.0327 42.6068H72.31V44.9651H70.6107V44.4275ZM68.8073 42.6068V40.8729H72.31V42.6068H68.8073ZM72.0499 46.0575C72.6857 46.0575 73.1307 45.913 73.3851 45.624C73.6509 45.3234 73.7839 44.8379 73.7839 44.1674V43.4045H75.6046V46.0575H72.0499ZM69.0327 40.8729C69.5761 40.8729 69.9749 40.7341 70.2292 40.4567C70.4835 40.1677 70.6107 39.7053 70.6107 39.0695V38.8788H72.31V40.8729H69.0327ZM68.8073 37.7343V36.0003H75.4659V37.7343H68.8073ZM73.6452 39.6764C73.6452 38.9944 73.5122 38.5031 73.2463 38.2025C72.9805 37.8904 72.5354 37.7343 71.9112 37.7343H75.4659V40.266H73.6452V39.6764ZM77.3188 47.8262V46.1615H78.6193V37.6129H77.3535V35.9483H81.9139V46.1615H83.093V47.8262H77.3188ZM87.0118 47.9649C86.2835 47.9649 85.6882 47.8435 85.2258 47.6008C84.7634 47.3464 84.4166 46.9939 84.1854 46.543C83.9542 46.0806 83.8097 45.5373 83.7519 44.9131L83.6825 44.1848C83.6363 43.5952 83.5034 43.2022 83.2837 43.0057C83.0641 42.8091 82.6999 42.7109 82.1913 42.7109H81.9139V42.3121L84.4975 42.2947C85.4223 42.2832 86.0697 42.5144 86.4396 42.9883C86.8211 43.4507 87.0118 44.1039 87.0118 44.9477V45.3119C87.0118 45.5315 87.0523 45.7049 87.1332 45.8321C87.2141 45.9477 87.3586 46.0055 87.5667 46.0055C87.7632 46.0055 87.9019 45.9477 87.9829 45.8321C88.0753 45.7049 88.1216 45.5315 88.1216 45.3119V43.0403H90.081V44.9651C90.081 45.8783 89.8324 46.6066 89.3354 47.1499C88.8499 47.6932 88.0753 47.9649 87.0118 47.9649ZM81.9139 42.7109V40.9769H84.3761C84.9888 40.9769 85.4686 40.844 85.8154 40.5781C86.1737 40.3006 86.3529 39.8845 86.3529 39.3296C86.3529 38.7632 86.1737 38.347 85.8154 38.0811C85.4686 37.8152 84.9888 37.6823 84.3761 37.6823H81.9139V35.9483H85.4165C86.6997 35.9483 87.7285 36.2142 88.5031 36.7459C89.2891 37.2661 89.6822 38.058 89.6822 39.1215C89.6822 40.185 89.3007 40.9885 88.5377 41.5318C87.7748 42.0751 86.7633 42.3467 85.5032 42.3467H84.2721L83.8559 42.7109H81.9139ZM94.0892 47.8262V46.1615H95.7539V36.0003H99.0484V46.1615H100.696V47.8262H94.0892ZM91.0721 40.422V37.7343H94.6268C94.0025 37.7343 93.5575 37.8846 93.2916 38.1852C93.0257 38.4742 92.8928 38.9423 92.8928 39.5897V40.422H91.0721ZM91.0721 37.7343V36.0003H103.713V37.7343H91.0721ZM101.892 39.5897C101.892 38.9423 101.759 38.4742 101.493 38.1852C101.239 37.8846 100.794 37.7343 100.158 37.7343H103.713V40.422H101.892V39.5897ZM104.918 47.8262V46.1615H106.339V37.665H104.952V36.0003H111.021V37.665H109.634V46.1615H111.056V47.8262H104.918ZM112.439 47.8262V46.1615H113.739V37.665H112.474V36.0003H117.034V46.1615H118.681V47.8262H112.439ZM117.034 37.7343V36.0003H123.814V37.7343H117.034ZM117.034 42.6935V40.9596H120.658V42.6935H117.034ZM121.993 39.6764C121.993 38.9944 121.86 38.5031 121.594 38.2025C121.34 37.8904 120.895 37.7343 120.259 37.7343H123.814V40.422H121.993V39.6764ZM117.207 40.9596C117.809 40.9596 118.236 40.8151 118.491 40.5261C118.756 40.2255 118.889 39.7573 118.889 39.1215V38.8788H120.658V40.9596H117.207ZM118.889 44.5316C118.889 43.8842 118.756 43.416 118.491 43.127C118.236 42.838 117.809 42.6935 117.207 42.6935H120.658V45.1211H118.889V44.5316ZM125.001 47.8262V46.1615H126.423V37.665H125.035V36.0003H131.104V37.665H129.717V46.1615H131.139V47.8262H125.001ZM138.617 48.121C137.311 48.121 136.178 47.8782 135.218 47.3927C134.27 46.8956 133.536 46.1847 133.016 45.2599C132.496 44.3351 132.236 43.2195 132.236 41.9133C132.236 40.607 132.484 39.4914 132.981 38.5666C133.49 37.6418 134.195 36.9367 135.097 36.4512C136.01 35.9541 137.062 35.7056 138.253 35.7056C139.305 35.7056 140.178 35.8963 140.871 36.2778C141.576 36.6477 142.102 37.1621 142.449 37.821C142.807 38.4799 142.987 39.2313 142.987 40.0752H142.276C142.218 39.7053 142.079 39.3354 141.86 38.9655C141.64 38.584 141.316 38.2661 140.889 38.0118C140.472 37.7574 139.929 37.6303 139.259 37.6303C138.53 37.6303 137.906 37.7979 137.386 38.1331C136.877 38.4568 136.484 38.9192 136.207 39.5203C135.941 40.1099 135.808 40.8093 135.808 41.6185C135.808 42.4392 135.952 43.1559 136.241 43.7686C136.53 44.3697 136.941 44.8379 137.473 45.1732C138.016 45.4968 138.646 45.6587 139.363 45.6587C139.998 45.6587 140.53 45.5431 140.958 45.3119C141.386 45.0807 141.715 44.7743 141.946 44.3929C142.189 43.9998 142.345 43.5605 142.414 43.075H144.374C144.328 43.9651 144.102 44.7975 143.698 45.572C143.293 46.3349 142.675 46.9534 141.842 47.4274C141.01 47.8898 139.935 48.121 138.617 48.121ZM142.987 40.0752L142.31 38.6533V36.0003H144.235V40.0752H142.987ZM144.964 47.8262V46.1615H146.057L150.357 36.0003H153.391L157.692 46.1615H158.784V47.8262H152.507V46.1615H154.154L150.721 37.821H151.761L148.259 46.1615H149.889V47.8262H144.964ZM148.536 44.4796V42.7456H154.033V44.4796H148.536ZM161.315 47.8262V46.1615H162.98V36.0003H166.275V46.1615H167.922V47.8262H161.315ZM158.298 40.422V37.7343H161.853C161.229 37.7343 160.784 37.8846 160.518 38.1852C160.252 38.4742 160.119 38.9423 160.119 39.5897V40.422H158.298ZM158.298 37.7343V36.0003H170.939V37.7343H158.298ZM169.118 39.5897C169.118 38.9423 168.985 38.4742 168.72 38.1852C168.465 37.8846 168.02 37.7343 167.384 37.7343H170.939V40.422H169.118V39.5897ZM172.144 47.8262V46.1615H173.566V37.665H172.178V36.0003H178.247V37.665H176.86V46.1615H178.282V47.8262H172.144ZM186.332 48.1036C184.933 48.1036 183.708 47.8609 182.656 47.3753C181.616 46.8898 180.806 46.1904 180.229 45.2772C179.662 44.3524 179.379 43.2311 179.379 41.9133C179.379 40.5954 179.662 39.4741 180.229 38.5493C180.806 37.6245 181.616 36.9251 182.656 36.4512C183.708 35.9657 184.933 35.7229 186.332 35.7229C187.742 35.7229 188.968 35.9657 190.008 36.4512C191.049 36.9251 191.852 37.6245 192.418 38.5493C192.996 39.4741 193.285 40.5954 193.285 41.9133C193.285 43.2311 192.996 44.3524 192.418 45.2772C191.852 46.1904 191.049 46.8898 190.008 47.3753C188.968 47.8609 187.742 48.1036 186.332 48.1036ZM186.315 46.2656C187.02 46.2656 187.615 46.098 188.101 45.7627C188.598 45.4275 188.974 44.9362 189.228 44.2888C189.482 43.6299 189.609 42.838 189.609 41.9133C189.609 40.9769 189.482 40.185 189.228 39.5377C188.974 38.8903 188.598 38.399 188.101 38.0638C187.615 37.7285 187.026 37.5609 186.332 37.5609C185.65 37.5609 185.061 37.7285 184.563 38.0638C184.078 38.399 183.702 38.8903 183.436 39.5377C183.182 40.1735 183.055 40.9653 183.055 41.9133C183.055 42.838 183.182 43.6299 183.436 44.2888C183.702 44.9362 184.078 45.4275 184.563 45.7627C185.049 46.098 185.633 46.2656 186.315 46.2656ZM204.383 47.8262L197.845 40.266L198.47 36.0003L204.4 42.8669L204.383 47.8262ZM194.499 47.8262V46.1615H195.799V37.665H194.534V36.0003H198.47L197.845 40.266V46.1615H199.267V47.8262H194.499ZM204.383 47.8262L204.313 42.8669H204.4V37.665H203.013V36.0003H207.712V37.665H206.446V47.8262H204.383Z" fill="black"/>
<rect x="96.8145" y="73.2129" width="61.1715" height="3.37166" rx="1.68583" fill="#B9C7D2"/>
<path d="M128.316 141.291L135.243 157.664L137.762 152.784L143.429 154.2L136.188 137.828L128.316 141.291Z" fill="url(#paint0_linear_520_1852)" stroke="#7A7A7A" stroke-width="0.314852"/>
<path d="M121.43 138.164L114.96 154.722L120.17 152.986L123.239 157.957L129.483 141.179L121.43 138.164Z" fill="url(#paint1_linear_520_1852)" stroke="#7A7A7A" stroke-width="0.314852"/>
<path d="M127.922 114.858C128.039 114.696 128.279 114.696 128.395 114.858L129.113 115.855C129.218 116.001 129.428 116.018 129.555 115.891L130.423 115.021C130.564 114.881 130.801 114.919 130.89 115.097L131.438 116.197C131.518 116.358 131.723 116.408 131.869 116.303L132.866 115.584C133.027 115.468 133.255 115.544 133.314 115.734L133.679 116.908C133.732 117.079 133.926 117.162 134.087 117.081L135.186 116.531C135.364 116.442 135.577 116.554 135.604 116.751L135.776 117.968C135.801 118.146 135.98 118.259 136.151 118.205L137.324 117.839C137.514 117.779 137.706 117.924 137.702 118.123L137.676 119.351C137.673 119.531 137.831 119.671 138.009 119.646L139.225 119.472C139.422 119.444 139.589 119.617 139.553 119.813L139.33 121.022C139.298 121.198 139.431 121.362 139.611 121.365L140.84 121.389C141.038 121.393 141.175 121.591 141.108 121.778L140.695 122.935C140.634 123.104 140.74 123.287 140.916 123.32L142.125 123.54C142.321 123.576 142.424 123.793 142.328 123.967L141.734 125.043C141.647 125.201 141.722 125.398 141.892 125.458L143.05 125.87C143.237 125.936 143.304 126.167 143.181 126.324L142.422 127.291C142.312 127.432 142.354 127.639 142.511 127.725L143.588 128.318C143.763 128.413 143.791 128.652 143.645 128.787L142.741 129.619C142.609 129.741 142.618 129.952 142.759 130.063L143.727 130.82C143.884 130.942 143.874 131.183 143.708 131.292L142.682 131.969C142.532 132.068 142.507 132.278 142.629 132.41L143.463 133.312C143.598 133.458 143.55 133.694 143.368 133.775L142.247 134.279C142.083 134.352 142.024 134.555 142.124 134.705L142.802 135.73C142.912 135.896 142.827 136.12 142.634 136.172L141.447 136.489C141.274 136.535 141.183 136.726 141.257 136.89L141.762 138.01C141.844 138.191 141.724 138.4 141.526 138.419L140.303 138.542C140.124 138.56 140.004 138.734 140.051 138.907L140.37 140.094C140.422 140.286 140.27 140.472 140.071 140.46L138.844 140.385C138.665 140.374 138.519 140.526 138.537 140.705L138.661 141.928C138.682 142.126 138.502 142.285 138.308 142.241L137.109 141.97C136.934 141.931 136.765 142.057 136.754 142.237L136.681 143.464C136.669 143.662 136.466 143.791 136.281 143.716L135.142 143.256C134.975 143.189 134.788 143.287 134.749 143.463L134.48 144.662C134.436 144.856 134.215 144.95 134.045 144.847L132.994 144.21C132.84 144.117 132.64 144.184 132.573 144.351L132.115 145.491C132.041 145.676 131.807 145.734 131.656 145.605L130.72 144.807C130.584 144.691 130.375 144.725 130.282 144.879L129.647 145.931C129.545 146.101 129.305 146.121 129.176 145.969L128.381 145.032C128.264 144.895 128.053 144.895 127.937 145.032L127.141 145.969C127.013 146.121 126.773 146.101 126.67 145.931L126.035 144.879C125.943 144.725 125.734 144.691 125.597 144.807L124.662 145.605C124.51 145.734 124.277 145.676 124.203 145.491L123.745 144.351C123.678 144.184 123.478 144.117 123.324 144.21L122.273 144.847C122.103 144.95 121.881 144.856 121.838 144.662L121.569 143.463C121.53 143.287 121.342 143.189 121.176 143.256L120.036 143.716C119.852 143.791 119.649 143.662 119.637 143.464L119.563 142.237C119.553 142.057 119.384 141.931 119.209 141.97L118.01 142.241C117.816 142.285 117.636 142.126 117.656 141.928L117.781 140.705C117.799 140.526 117.653 140.374 117.473 140.385L116.247 140.46C116.048 140.472 115.896 140.286 115.948 140.094L116.267 138.907C116.313 138.734 116.193 138.56 116.015 138.542L114.792 138.419C114.594 138.4 114.474 138.191 114.555 138.01L115.061 136.89C115.135 136.726 115.044 136.535 114.87 136.489L113.683 136.172C113.491 136.12 113.406 135.896 113.515 135.73L114.194 134.705C114.293 134.555 114.234 134.352 114.071 134.279L112.949 133.775C112.768 133.694 112.72 133.458 112.855 133.312L113.689 132.41C113.811 132.278 113.785 132.068 113.635 131.969L112.61 131.292C112.443 131.183 112.434 130.942 112.591 130.82L113.559 130.063C113.7 129.952 113.709 129.741 113.576 129.619L112.672 128.787C112.526 128.652 112.555 128.413 112.729 128.318L113.806 127.725C113.964 127.639 114.006 127.432 113.895 127.291L113.136 126.324C113.014 126.167 113.08 125.936 113.268 125.87L114.426 125.458C114.595 125.398 114.67 125.201 114.583 125.043L113.99 123.967C113.893 123.793 113.996 123.576 114.192 123.54L115.401 123.32C115.578 123.287 115.684 123.104 115.623 122.935L115.21 121.778C115.143 121.591 115.279 121.393 115.478 121.389L116.707 121.365C116.886 121.362 117.02 121.198 116.987 121.022L116.765 119.813C116.729 119.617 116.895 119.444 117.092 119.472L118.309 119.646C118.487 119.671 118.645 119.531 118.641 119.351L118.615 118.123C118.611 117.924 118.803 117.779 118.993 117.839L120.166 118.205C120.338 118.259 120.516 118.146 120.541 117.968L120.713 116.751C120.741 116.554 120.954 116.442 121.132 116.531L122.231 117.081C122.391 117.162 122.586 117.079 122.639 116.908L123.004 115.734C123.063 115.544 123.291 115.468 123.452 115.584L124.449 116.303C124.594 116.408 124.799 116.358 124.879 116.197L125.428 115.097C125.516 114.919 125.754 114.881 125.894 115.021L126.763 115.891C126.889 116.018 127.1 116.001 127.205 115.855L127.922 114.858Z" fill="url(#paint2_linear_520_1852)"/>
<circle cx="128.316" cy="130.272" r="12.4366" stroke="url(#paint3_linear_520_1852)" stroke-width="0.314852"/>
<circle cx="128.339" cy="130.218" r="11.4866" stroke="#8C6C62" stroke-width="0.314852" stroke-dasharray="0.31 0.31"/>
<defs>
<linearGradient id="paint0_linear_520_1852" x1="135.873" y1="137.828" x2="135.873" y2="157.664" gradientUnits="userSpaceOnUse">
<stop stop-color="#404046"/>
<stop offset="1" stop-color="#7C3E26"/>
</linearGradient>
<linearGradient id="paint1_linear_520_1852" x1="129.258" y1="140.96" x2="115.411" y2="155.162" gradientUnits="userSpaceOnUse">
<stop stop-color="#404046"/>
<stop offset="1" stop-color="#7C3E26"/>
</linearGradient>
<linearGradient id="paint2_linear_520_1852" x1="129.182" y1="125.077" x2="138.942" y2="148.533" gradientUnits="userSpaceOnUse">
<stop stop-color="#404046"/>
<stop offset="1" stop-color="#983D16"/>
</linearGradient>
<linearGradient id="paint3_linear_520_1852" x1="114.092" y1="130.901" x2="153.764" y2="146.959" gradientUnits="userSpaceOnUse">
<stop stop-color="#959595"/>
<stop offset="0.46" stop-color="#956E63"/>
<stop offset="1" stop-color="#626263"/>
</linearGradient>
</defs>
</svg>
