<svg width="823" height="596" viewBox="0 0 823 596" fill="none" xmlns="http://www.w3.org/2000/svg">
<g clip-path="url(#clip0_429_1028)">
<rect width="823" height="596" fill="white"/>
<path d="M250.2 191.03C249.03 191.03 247.94 190.82 246.94 190.39C245.94 189.97 245.08 189.37 244.34 188.61C243.6 187.85 243.03 186.95 242.61 185.93C242.19 184.9 241.98 183.78 241.98 182.56C241.98 181.34 242.19 180.22 242.6 179.18C243.01 178.14 243.59 177.25 244.33 176.5C245.07 175.74 245.94 175.16 246.93 174.74C247.92 174.32 249.01 174.11 250.2 174.11C251.39 174.11 252.43 174.31 253.36 174.7C254.29 175.1 255.08 175.62 255.73 176.27C256.37 176.92 256.84 177.64 257.12 178.41L254.44 179.69C254.13 178.85 253.61 178.17 252.88 177.63C252.15 177.09 251.26 176.83 250.22 176.83C249.18 176.83 248.29 177.07 247.5 177.56C246.72 178.04 246.11 178.71 245.67 179.56C245.24 180.41 245.02 181.41 245.02 182.55C245.02 183.69 245.24 184.7 245.67 185.55C246.1 186.41 246.71 187.08 247.5 187.56C248.28 188.04 249.19 188.29 250.22 188.29C251.25 188.29 252.15 188.02 252.88 187.49C253.61 186.96 254.13 186.28 254.44 185.45L257.12 186.7C256.84 187.48 256.38 188.19 255.73 188.85C255.08 189.5 254.3 190.03 253.36 190.42C252.43 190.82 251.38 191.01 250.2 191.01V191.03Z" fill="#202549"/>
<path d="M259.721 190.76V174.37H270.631V177.01H262.731V181.21H270.191V183.87H262.731V188.12H270.631V190.76H259.721Z" fill="#202549"/>
<path d="M273.03 190.76V174.37H279.15C280.26 174.37 281.25 174.57 282.11 174.97C282.97 175.37 283.64 175.96 284.12 176.73C284.6 177.5 284.85 178.44 284.85 179.56C284.85 180.68 284.58 181.63 284.05 182.43C283.51 183.23 282.79 183.82 281.88 184.2L285.64 190.76H282.25L278.2 183.57L280.16 184.71H276.05V190.76H273.04H273.03ZM276.05 182.07H279.2C279.74 182.07 280.21 181.96 280.61 181.75C281.01 181.54 281.31 181.24 281.53 180.86C281.75 180.48 281.86 180.04 281.86 179.54C281.86 179.04 281.75 178.58 281.53 178.21C281.31 177.84 281 177.54 280.61 177.33C280.22 177.12 279.74 177.01 279.2 177.01H276.05V182.07Z" fill="#202549"/>
<path d="M290.28 190.76V177.01H286.03V174.37H297.47V177.01H293.29V190.76H290.28Z" fill="#202549"/>
<path d="M299.5 190.76V174.37H302.51V190.76H299.5Z" fill="#202549"/>
<path d="M305.851 190.76V174.37H316.811V177.01H308.871V181.54H315.821V184.2H308.871V190.76H305.861H305.851Z" fill="#202549"/>
<path d="M318.971 190.76V174.37H321.981V190.76H318.971Z" fill="#202549"/>
<path d="M333.05 191.03C331.88 191.03 330.79 190.82 329.79 190.39C328.79 189.97 327.93 189.37 327.19 188.61C326.46 187.85 325.88 186.95 325.46 185.93C325.04 184.9 324.83 183.78 324.83 182.56C324.83 181.34 325.04 180.22 325.45 179.18C325.86 178.15 326.44 177.25 327.18 176.5C327.92 175.75 328.79 175.16 329.78 174.74C330.77 174.32 331.86 174.11 333.05 174.11C334.24 174.11 335.27 174.31 336.21 174.7C337.14 175.1 337.93 175.62 338.58 176.27C339.23 176.92 339.69 177.64 339.97 178.41L337.29 179.69C336.98 178.85 336.46 178.17 335.73 177.63C335 177.09 334.11 176.83 333.07 176.83C332.03 176.83 331.14 177.07 330.35 177.56C329.56 178.04 328.96 178.71 328.52 179.56C328.09 180.41 327.87 181.41 327.87 182.55C327.87 183.69 328.09 184.7 328.52 185.55C328.95 186.41 329.56 187.08 330.35 187.56C331.13 188.04 332.04 188.29 333.07 188.29C334.1 188.29 335 188.02 335.73 187.49C336.46 186.95 336.98 186.28 337.29 185.45L339.97 186.7C339.69 187.48 339.23 188.19 338.58 188.85C337.93 189.5 337.15 190.03 336.21 190.42C335.28 190.82 334.23 191.01 333.05 191.01V191.03Z" fill="#202549"/>
<path d="M341.25 190.76L346.9 174.37H350.77L356.42 190.76H353.16L351.99 187.26H345.65L344.46 190.76H341.23H341.25ZM346.53 184.6H351.13L348.42 176.46H349.26L346.53 184.6Z" fill="#202549"/>
<path d="M360.28 190.76V177.01H356.03V174.37H367.47V177.01H363.29V190.76H360.28Z" fill="#202549"/>
<path d="M369.5 190.76V174.37H380.41V177.01H372.51V181.21H379.97V183.87H372.51V188.12H380.41V190.76H369.5Z" fill="#202549"/>
<path d="M395.04 191.03C393.82 191.03 392.7 190.82 391.66 190.39C390.63 189.97 389.72 189.37 388.94 188.61C388.16 187.85 387.55 186.95 387.11 185.91C386.67 184.87 386.45 183.76 386.45 182.55C386.45 181.34 386.67 180.23 387.1 179.2C387.53 178.17 388.14 177.27 388.92 176.52C389.7 175.77 390.61 175.18 391.65 174.75C392.69 174.32 393.82 174.11 395.04 174.11C396.26 174.11 397.39 174.32 398.43 174.75C399.47 175.18 400.38 175.77 401.16 176.53C401.94 177.29 402.54 178.19 402.98 179.21C403.41 180.24 403.63 181.35 403.63 182.55C403.63 183.75 403.41 184.87 402.97 185.91C402.53 186.95 401.92 187.84 401.14 188.61C400.36 189.38 399.46 189.97 398.42 190.39C397.39 190.82 396.26 191.03 395.04 191.03ZM395.04 188.3C395.83 188.3 396.57 188.16 397.24 187.87C397.91 187.58 398.5 187.18 399.01 186.67C399.52 186.16 399.91 185.55 400.19 184.84C400.47 184.14 400.61 183.37 400.61 182.55C400.61 181.73 400.47 180.97 400.19 180.27C399.91 179.57 399.52 178.96 399.01 178.44C398.5 177.92 397.91 177.52 397.24 177.24C396.57 176.96 395.83 176.82 395.04 176.82C394.25 176.82 393.51 176.96 392.84 177.24C392.16 177.52 391.57 177.92 391.07 178.44C390.57 178.96 390.17 179.57 389.89 180.27C389.61 180.97 389.47 181.73 389.47 182.55C389.47 183.37 389.61 184.13 389.89 184.84C390.17 185.54 390.56 186.15 391.07 186.67C391.58 187.18 392.17 187.58 392.84 187.87C393.51 188.16 394.25 188.3 395.04 188.3Z" fill="#202549"/>
<path d="M406.48 190.76V174.37H417.44V177.01H409.5V181.54H416.45V184.2H409.5V190.76H406.49H406.48Z" fill="#202549"/>
<path d="M422.411 190.76L428.061 174.37H431.931L437.581 190.76H434.321L433.151 187.26H426.811L425.621 190.76H422.391H422.411ZM427.691 184.6H432.291L429.581 176.46H430.421L427.691 184.6Z" fill="#202549"/>
<path d="M446.67 191.03C445.5 191.03 444.41 190.82 443.41 190.39C442.41 189.97 441.55 189.37 440.81 188.61C440.08 187.85 439.5 186.95 439.08 185.93C438.66 184.9 438.45 183.78 438.45 182.56C438.45 181.34 438.66 180.22 439.07 179.18C439.48 178.14 440.06 177.25 440.8 176.5C441.54 175.74 442.41 175.16 443.4 174.74C444.39 174.32 445.48 174.11 446.67 174.11C447.86 174.11 448.9 174.31 449.83 174.7C450.76 175.1 451.55 175.62 452.19 176.27C452.84 176.92 453.3 177.64 453.58 178.41L450.9 179.69C450.59 178.85 450.07 178.17 449.34 177.63C448.61 177.09 447.72 176.83 446.68 176.83C445.64 176.83 444.75 177.07 443.96 177.56C443.17 178.04 442.57 178.71 442.13 179.56C441.7 180.41 441.48 181.41 441.48 182.55C441.48 183.69 441.7 184.7 442.13 185.55C442.56 186.41 443.17 187.08 443.96 187.56C444.75 188.04 445.65 188.29 446.68 188.29C447.71 188.29 448.61 188.02 449.34 187.49C450.07 186.96 450.59 186.28 450.9 185.45L453.58 186.7C453.3 187.48 452.84 188.19 452.19 188.85C451.55 189.5 450.76 190.03 449.83 190.42C448.9 190.82 447.85 191.01 446.67 191.01V191.03Z" fill="#202549"/>
<path d="M456.2 190.76V174.37H459.21V181.52H466.18V174.37H469.19V190.76H466.18V184.16H459.21V190.76H456.2Z" fill="#202549"/>
<path d="M472.54 190.76V174.37H475.55V190.76H472.54Z" fill="#202549"/>
<path d="M478.9 190.76V174.37H489.81V177.01H481.91V181.21H489.37V183.87H481.91V188.12H489.81V190.76H478.9Z" fill="#202549"/>
<path d="M496.591 190.76L490.891 174.37H494.151L498.641 187.94H498.001L502.471 174.37H505.751L500.051 190.76H496.591Z" fill="#202549"/>
<path d="M507.761 190.76V174.37H518.671V177.01H510.771V181.21H518.231V183.87H510.771V188.12H518.671V190.76H507.761Z" fill="#202549"/>
<path d="M521.08 190.76V174.37H523.96L530.1 182.71H528.74L534.75 174.37H537.61V190.76H534.6V177.78L535.77 178.07L529.54 186.36H529.19L523.12 178.07L524.11 177.78V190.76H521.1H521.08Z" fill="#202549"/>
<path d="M540.94 190.76V174.37H551.85V177.01H543.95V181.21H551.41V183.87H543.95V188.12H551.85V190.76H540.94Z" fill="#202549"/>
<path d="M554.25 190.76V174.37H556.6L565.6 186.51L564.41 186.75V174.36H567.4V190.75H565.02L556.15 178.52L557.25 178.28V190.75H554.24L554.25 190.76Z" fill="#202549"/>
<path d="M573.7 190.76V177.01H569.45V174.37H580.89V177.01H576.71V190.76H573.7Z" fill="#202549"/>
<path d="M475.98 51.0897C474.35 50.1797 472.47 49.7197 470.37 49.7197C468.27 49.7197 466.55 50.1697 465.02 51.0597C463.84 51.7497 462.92 52.6897 462.25 53.8697V50.3397H455.71V79.0097H462.67V62.1997C462.67 60.9397 462.92 59.8497 463.41 58.9297C463.9 58.0197 464.59 57.3097 465.46 56.8197C466.34 56.3297 467.34 56.0797 468.46 56.0797C469.58 56.0797 470.59 56.3297 471.46 56.8197C472.34 57.3097 473.02 58.0097 473.52 58.9297C474.01 59.8497 474.26 60.9297 474.26 62.1997V79.0097H481.16V60.5597C481.16 58.4197 480.7 56.5297 479.79 54.8997C478.88 53.2697 477.6 51.9897 475.97 51.0797" fill="#202549"/>
<path d="M411.07 67.7995C410.44 68.9595 409.57 69.8595 408.46 70.5095C407.35 71.1595 406.06 71.4795 404.59 71.4795C403.12 71.4795 401.8 71.1495 400.66 70.4795C399.52 69.8095 398.62 68.8995 397.97 67.7395C397.32 66.5795 397 65.2595 397 63.7895C397 62.3195 397.32 60.9995 397.97 59.8395C398.62 58.6795 399.52 57.7695 400.68 57.0995C401.84 56.4295 403.14 56.0995 404.58 56.0995C406.02 56.0995 407.3 56.4295 408.4 57.0995C409.51 57.7695 410.39 58.6795 411.04 59.8395C411.69 60.9995 412.02 62.3195 412.02 63.7895C412.02 65.2595 411.7 66.6395 411.07 67.7995ZM412.39 53.7195C411.48 52.6195 410.43 51.7395 409.23 51.0695C407.61 50.1695 405.73 49.7295 403.59 49.7295C400.95 49.7295 398.6 50.3395 396.53 51.5495C394.46 52.7595 392.81 54.4195 391.6 56.5295C390.39 58.6395 389.78 61.0495 389.78 63.7495C389.78 66.4495 390.39 68.8295 391.6 70.9695C392.81 73.1095 394.47 74.7995 396.58 76.0295C398.69 77.2595 401.06 77.8695 403.69 77.8695C405.83 77.8695 407.72 77.4295 409.36 76.5495C410.37 76.0095 411.26 75.2995 412.02 74.4295V77.5995C412.02 77.9295 412 78.2495 411.97 78.5495C411.76 80.3395 411.06 81.5195 409.79 82.7895C406.71 85.8695 401.69 85.8695 398.6 82.7895L393.85 87.5495C396.7 90.3995 400.45 91.8295 404.2 91.8295C407.95 91.8295 411.7 90.3995 414.55 87.5495C416.9 85.1995 418.48 82.2495 418.86 78.9395C418.9 78.4995 418.93 78.0595 418.93 77.5995V50.3495H412.39V53.7095V53.7195Z" fill="#202549"/>
<path d="M502.62 56.5196V50.3496H495.74V43.8096H488.97V46.0196C488.97 47.4296 488.59 48.4996 487.84 49.2296C487.08 49.9696 486 50.3396 484.6 50.3396H484.07V56.5096H488.97V65.6196C488.97 73.1296 495.11 79.2296 502.62 79.2296V72.4996C498.86 72.4996 495.8 69.4696 495.74 65.7296V56.4996H502.62V56.5196Z" fill="#202549"/>
<path d="M378.08 70.21C376.19 72.1 373.56 72.83 371.1 72.4C371.05 72.4 371 72.39 370.96 72.38C370.79 72.35 370.62 72.3 370.46 72.26C370.37 72.24 370.28 72.22 370.2 72.19C370.07 72.15 369.95 72.1 369.82 72.06C369.7 72.02 369.57 71.98 369.46 71.93C369.37 71.89 369.29 71.85 369.2 71.81C369.05 71.74 368.89 71.67 368.74 71.59C368.7 71.57 368.65 71.54 368.61 71.51C366.21 70.15 364.58 67.57 364.58 64.62C364.58 60.81 367.29 57.62 370.88 56.87C370.88 56.87 370.9 56.87 370.91 56.87C371.13 56.82 371.36 56.79 371.59 56.77C371.63 56.77 371.67 56.76 371.7 56.75C371.96 56.72 372.23 56.71 372.5 56.71C372.77 56.71 373.04 56.72 373.3 56.75C373.34 56.75 373.38 56.76 373.41 56.77C373.64 56.8 373.86 56.83 374.08 56.87C374.08 56.87 374.1 56.87 374.11 56.87C376.16 57.3 377.91 58.51 379.05 60.19C379.16 60.36 379.27 60.53 379.37 60.71C379.4 60.76 379.43 60.81 379.46 60.86C379.54 61 379.6 61.15 379.67 61.29C379.71 61.38 379.76 61.48 379.8 61.57C379.85 61.68 379.88 61.79 379.92 61.9C379.97 62.04 380.02 62.18 380.06 62.31C380.08 62.38 380.1 62.46 380.12 62.53C380.17 62.71 380.22 62.89 380.25 63.07C380.25 63.1 380.25 63.12 380.26 63.15C380.71 65.63 379.99 68.28 378.08 70.19M386.84 61.81C386.77 61.46 386.68 61.11 386.59 60.77C386.56 60.65 386.53 60.52 386.49 60.4C386.41 60.13 386.31 59.87 386.21 59.6C386.14 59.4 386.07 59.21 385.99 59.01C385.91 58.82 385.82 58.64 385.74 58.46C385.62 58.2 385.5 57.94 385.37 57.68C385.31 57.57 385.25 57.47 385.19 57.37C385.01 57.05 384.83 56.74 384.62 56.43C384.61 56.41 384.59 56.4 384.58 56.38C384.07 55.63 383.49 54.91 382.83 54.25C380.78 52.2 378.23 50.84 375.45 50.27C375.45 50.27 375.43 50.27 375.42 50.27C375.01 50.19 374.59 50.13 374.17 50.08C374.1 50.08 374.03 50.06 373.96 50.05C373.47 50 372.98 49.97 372.48 49.97C371.98 49.97 371.49 50 371 50.05C370.93 50.05 370.86 50.07 370.79 50.08C370.37 50.13 369.95 50.19 369.54 50.27C369.54 50.27 369.52 50.27 369.51 50.27C366.73 50.84 364.52 52.18 361.05 55.66L346.48 70.21C343.39 73.3 338.37 73.29 335.29 70.21C334.01 68.93 333.26 67.32 333.04 65.64C332.73 63.28 333.48 60.82 335.29 59.01C336.78 57.51 338.77 56.69 340.88 56.69C342.99 56.69 344.98 57.51 346.48 59.01L351.24 54.25C348.47 51.48 344.8 49.96 340.89 49.96C336.98 49.96 333.3 51.48 330.54 54.25C327.36 57.43 325.95 61.73 326.32 65.9C326.18 69.57 323.15 72.52 319.44 72.52V79.25C323.66 79.25 327.43 77.32 329.93 74.31C330.13 74.53 330.33 74.75 330.54 74.97C333.4 77.83 337.15 79.25 340.89 79.25C344.64 79.25 348.38 77.82 351.23 74.98L358.26 68.01C358.9 70.68 360.26 73.08 362.14 74.96C364.19 77.02 366.75 78.38 369.53 78.95C369.53 78.95 369.54 78.95 369.55 78.95C369.96 79.03 370.39 79.09 370.81 79.14C370.88 79.14 370.94 79.16 371.01 79.17C371.5 79.22 372 79.25 372.49 79.25C376.4 79.25 380.08 77.73 382.84 74.96C385.69 72.11 387.12 68.36 387.12 64.61C387.12 63.68 387.02 62.78 386.86 61.89C386.86 61.86 386.86 61.83 386.85 61.8" fill="#202549"/>
<path d="M430.57 61.3697C430.69 60.7697 430.85 60.1997 431.07 59.6797C431.65 58.3097 432.5 57.2597 433.63 56.5197C434.75 55.7797 436.04 55.4097 437.48 55.4097C438.92 55.4097 440.28 55.7797 441.35 56.5197C442.42 57.2597 443.2 58.2597 443.67 59.5197C443.89 60.0997 444.01 60.7097 444.06 61.3597H430.57V61.3697ZM447.75 53.8897C446.55 52.5897 445.11 51.5697 443.4 50.8297C441.7 50.0897 439.72 49.7197 437.47 49.7197C434.76 49.7197 432.34 50.3697 430.2 51.6697C428.06 52.9697 426.35 54.7397 425.09 56.9697C423.83 59.1997 423.19 61.7597 423.19 64.6397C423.19 66.0597 423.35 67.4097 423.68 68.7097C424.29 71.3897 425.62 73.7997 427.58 75.7697C430.43 78.6197 434.18 80.0497 437.93 80.0497C441.68 80.0497 445.43 78.6197 448.28 75.7697L443.52 71.0097C440.44 74.0897 435.41 74.0997 432.33 71.0097C431.15 69.8297 430.4 68.3497 430.13 66.7097C430.13 66.7097 430.13 66.7097 430.13 66.6997H451.06C451.2 66.2797 451.3 65.8097 451.35 65.2997C451.4 64.7897 451.43 64.2697 451.43 63.7497C451.43 61.8197 451.11 60.0197 450.48 58.3497C449.85 56.6797 448.93 55.1997 447.74 53.8997" fill="#202549"/>
<path d="M142.44 64.832C149.3 64.832 154.88 70.0577 154.88 76.482C154.88 82.9064 149.3 88.1321 142.44 88.1321C135.58 88.1321 130 82.9064 130 76.482C130 70.0577 135.58 64.832 142.44 64.832ZM142.44 82.2509C145.84 82.2509 148.61 79.6568 148.61 76.4727C148.61 73.2886 145.84 70.6945 142.44 70.6945C139.04 70.6945 136.27 73.2886 136.27 76.4727C136.27 79.6568 139.04 82.2509 142.44 82.2509Z" fill="#BCE4FA"/>
<path d="M58.7198 29.9756V35.8474C50.1898 35.8474 43.2498 42.3467 43.2498 50.335V67.7632C43.2498 78.9918 33.4998 88.1226 21.5098 88.1226V82.2508C30.0398 82.2508 36.9798 75.7515 36.9798 67.7632V50.335C36.9798 39.1064 46.7298 29.9756 58.7198 29.9756Z" fill="#BCE4FA"/>
<path d="M77.3201 12.5566H114.53V18.4285H77.3201C68.7901 18.4285 61.8501 24.9278 61.8501 32.9161C61.8501 40.9044 68.7901 47.4037 77.3201 47.4037H133.14C141.67 47.4037 148.61 40.9044 148.61 32.9161H154.88C154.88 44.1447 145.13 53.2755 133.14 53.2755H77.3201C65.3301 53.2755 55.5801 44.1447 55.5801 32.9161C55.5801 21.6875 65.3401 12.5566 77.3201 12.5566Z" fill="#BCE4FA"/>
<path d="M167.209 85.1914H173.479V102.62C173.479 113.848 163.729 122.979 151.739 122.979V117.107C160.269 117.107 167.209 110.608 167.209 102.62V85.1914Z" fill="#BCE4FA"/>
<path d="M21.5097 71.5832C23.763 71.5832 25.5897 69.8725 25.5897 67.7623C25.5897 65.6521 23.763 63.9414 21.5097 63.9414C19.2564 63.9414 17.4297 65.6521 17.4297 67.7623C17.4297 69.8725 19.2564 71.5832 21.5097 71.5832Z" fill="#BCE4FA"/>
<path d="M130 111.319H136.27C136.27 114.503 139.04 117.098 142.44 117.098H151.74V122.969H142.44C135.58 122.969 130 117.744 130 111.319Z" fill="#BCE4FA"/>
<path d="M95.9295 82.25V88.1218C87.3995 88.1218 80.4594 94.6211 80.4594 102.609C80.4594 110.598 87.3995 117.097 95.9295 117.097H123.839C127.239 117.097 130.009 114.503 130.009 111.319H136.279C136.279 117.743 130.699 122.969 123.839 122.969H95.9295C83.9395 122.969 74.1895 113.838 74.1895 102.609C74.1895 91.3808 83.9395 82.25 95.9295 82.25Z" fill="#BCE4FA"/>
<path d="M260.239 67.7627H266.509V85.1909C266.509 96.4195 256.759 105.55 244.769 105.55C232.779 105.55 223.029 96.4195 223.029 85.1909H229.299C229.299 93.1792 236.239 99.6785 244.769 99.6785C253.299 99.6785 260.239 93.1792 260.239 85.1909V67.7627Z" fill="#BCE4FA"/>
<path d="M170.35 12.5566H198.26C210.25 12.5566 220 21.6875 220 32.9161C220 44.1447 210.25 53.2755 198.26 53.2755V47.4037C206.79 47.4037 213.73 40.9044 213.73 32.9161C213.73 24.9278 206.79 18.4285 198.26 18.4285H170.35V12.5566Z" fill="#BCE4FA"/>
<path d="M316.049 15.4971H322.319C322.319 23.4854 329.259 29.9847 337.789 29.9847H374.999V35.8565H337.789C325.799 35.8565 316.049 26.7257 316.049 15.4971Z" fill="#BCE4FA"/>
<path d="M170.349 12.5566V18.4285C161.819 18.4285 154.879 24.9278 154.879 32.9161H148.609C148.609 21.6875 158.359 12.5566 170.349 12.5566Z" fill="#BCE4FA"/>
<path d="M133.14 18.3068C135.393 18.3068 137.22 16.5962 137.22 14.4859C137.22 12.3757 135.393 10.665 133.14 10.665C130.886 10.665 129.06 12.3757 129.06 14.4859C129.06 16.5962 130.886 18.3068 133.14 18.3068Z" fill="#BCE4FA"/>
<path d="M244.769 54.1652C247.023 54.1652 248.849 52.4546 248.849 50.3443C248.849 48.2341 247.023 46.5234 244.769 46.5234C242.516 46.5234 240.689 48.2341 240.689 50.3443C240.689 52.4546 242.516 54.1652 244.769 54.1652Z" fill="#BCE4FA"/>
<path d="M263.319 123.915C265.573 123.915 267.399 122.205 267.399 120.094C267.399 117.984 265.573 116.273 263.319 116.273C261.066 116.273 259.239 117.984 259.239 120.094C259.239 122.205 261.066 123.915 263.319 123.915Z" fill="#BCE4FA"/>
<path d="M347.1 19.3186C349.353 19.3186 351.18 17.6079 351.18 15.4977C351.18 13.3874 349.353 11.6768 347.1 11.6768C344.846 11.6768 343.02 13.3874 343.02 15.4977C343.02 17.6079 344.846 19.3186 347.1 19.3186Z" fill="#BCE4FA"/>
<path d="M309.89 -31C316.75 -31 322.33 -25.7743 322.33 -19.35V15.497H316.06V-19.35C316.06 -22.5341 313.29 -25.1282 309.89 -25.1282V-31Z" fill="#BCE4FA"/>
<path d="M381.17 -10.6406H387.44V24.2064C387.44 30.6308 381.86 35.8564 375 35.8564V29.9846C378.4 29.9846 381.17 27.3905 381.17 24.2064V-10.6406Z" fill="#BCE4FA"/>
<path d="M27.6798 41.625H33.9498C33.9498 48.0494 28.3698 53.275 21.5098 53.275V47.4032C24.9098 47.4032 27.6798 44.8091 27.6798 41.625Z" fill="#BCE4FA"/>
<path d="M68.0201 64.832H95.9301V70.7039H68.0201C64.6201 70.7039 61.8501 73.298 61.8501 76.482H55.5801C55.5801 70.0577 61.1601 64.832 68.0201 64.832Z" fill="#BCE4FA"/>
<path d="M-34.3105 21.2656H21.5095C28.3695 21.2656 33.9495 26.4913 33.9495 32.9156V41.6251H27.6795V32.9156C27.6795 29.7316 24.9095 27.1375 21.5095 27.1375H-34.3105V21.2656Z" fill="#BCE4FA"/>
<path d="M188.96 47.4033H198.26V53.2752H188.96C185.56 53.2752 182.79 55.8692 182.79 59.0533C182.79 62.2374 185.56 64.8315 188.96 64.8315H198.26V70.7033H188.96C182.1 70.7033 176.52 65.4777 176.52 59.0533C176.52 52.629 182.1 47.4033 188.96 47.4033Z" fill="#BCE4FA"/>
<path d="M235.469 64.832V70.7039C232.069 70.7039 229.299 73.298 229.299 76.482H223.029C223.029 70.0577 228.609 64.832 235.469 64.832Z" fill="#BCE4FA"/>
<path d="M216.859 64.832C223.719 64.832 229.299 70.0577 229.299 76.482V85.1915H223.029V76.482C223.029 73.298 220.259 70.7039 216.859 70.7039V64.832Z" fill="#BCE4FA"/>
<path d="M216.87 64.832H198.26V70.7039H216.87V64.832Z" fill="#BCE4FA"/>
<path d="M21.5095 47.4033V53.2752C12.9795 53.2752 6.03953 59.7744 6.03953 67.7628C6.03953 75.7511 12.9795 82.2503 21.5095 82.2503V88.1222C9.51953 88.1222 -0.230469 78.9913 -0.230469 67.7628C-0.230469 56.5342 9.51953 47.4033 21.5095 47.4033Z" fill="#BCE4FA"/>
<path d="M114.54 90.96H95.9297V96.8318H114.54V90.96Z" fill="#BCE4FA"/>
<path d="M114.54 82.25H95.9297V88.1218H114.54V82.25Z" fill="#BCE4FA"/>
<path d="M139.31 93.9004H145.58C145.58 100.325 140 105.55 133.14 105.55V99.6786C136.54 99.6786 139.31 97.0845 139.31 93.9004Z" fill="#BCE4FA"/>
<path d="M139.31 93.9004H145.58C145.58 97.0845 148.35 99.6786 151.75 99.6786V105.55C144.89 105.55 139.31 100.325 139.31 93.9004Z" fill="#BCE4FA"/>
<path d="M175 29.9756H198.26V35.8474H175C171.6 35.8474 168.83 38.4415 168.83 41.6256H162.56C162.56 35.2012 168.14 29.9756 175 29.9756Z" fill="#BCE4FA"/>
<path d="M302.089 81.5957V87.4675C298.689 87.4675 295.919 90.0616 295.919 93.2457H289.649C289.649 86.8213 295.229 81.5957 302.089 81.5957Z" fill="#BCE4FA"/>
<path d="M289.649 75.8262H295.919C295.919 79.0103 298.689 81.6044 302.089 81.6044V87.4762C295.229 87.4762 289.649 82.2505 289.649 75.8262Z" fill="#BCE4FA"/>
<path d="M281.979 12.5566C293.969 12.5566 303.719 21.6875 303.719 32.9161H297.449C297.449 24.9278 290.509 18.4285 281.979 18.4285C273.449 18.4285 266.509 24.9278 266.509 32.9161H260.239C260.239 21.6875 269.989 12.5566 281.979 12.5566Z" fill="#BCE4FA"/>
<path d="M40.1091 101.589V107.461C31.5791 107.461 24.6391 113.96 24.6391 121.948H18.3691C18.3691 110.72 28.1191 101.589 40.1091 101.589Z" fill="#BCE4FA"/>
<path d="M40.1094 101.589C52.0994 101.589 61.8494 110.72 61.8494 121.948H55.5794C55.5794 113.96 48.6394 107.461 40.1094 107.461V101.589Z" fill="#BCE4FA"/>
<path d="M58.7197 89.0119C60.973 89.0119 62.7996 87.3013 62.7996 85.191C62.7996 83.0808 60.973 81.3701 58.7197 81.3701C56.4663 81.3701 54.6396 83.0808 54.6396 85.191C54.6396 87.3013 56.4663 89.0119 58.7197 89.0119Z" fill="#BCE4FA"/>
<path d="M279.979 111.319H286.249C286.249 114.503 289.019 117.098 292.419 117.098V122.969C285.559 122.969 279.979 117.744 279.979 111.319Z" fill="#BCE4FA"/>
<path d="M289.869 100.101H296.139C296.139 103.285 298.909 105.879 302.309 105.879H330.219V111.751H302.309C295.449 111.751 289.869 106.525 289.869 100.101Z" fill="#BCE4FA"/>
<path d="M81.4101 36.7365C83.6634 36.7365 85.4901 35.0259 85.4901 32.9156C85.4901 30.8054 83.6634 29.0947 81.4101 29.0947C79.1568 29.0947 77.3301 30.8054 77.3301 32.9156C77.3301 35.0259 79.1568 36.7365 81.4101 36.7365Z" fill="#BCE4FA"/>
<path d="M95.9296 36.7365C98.1829 36.7365 100.01 35.0259 100.01 32.9156C100.01 30.8054 98.1829 29.0947 95.9296 29.0947C93.6763 29.0947 91.8496 30.8054 91.8496 32.9156C91.8496 35.0259 93.6763 36.7365 95.9296 36.7365Z" fill="#BCE4FA"/>
<path d="M110.45 36.7365C112.703 36.7365 114.53 35.0259 114.53 32.9156C114.53 30.8054 112.703 29.0947 110.45 29.0947C108.197 29.0947 106.37 30.8054 106.37 32.9156C106.37 35.0259 108.197 36.7365 110.45 36.7365Z" fill="#BCE4FA"/>
<path d="M263.38 12.5566L283.52 12.6222L283.5 18.494L263.37 18.4285C254.85 18.4285 247.91 24.9278 247.91 32.9161H241.64C241.64 21.6875 251.39 12.5566 263.38 12.5566Z" fill="#BCE4FA"/>
<path d="M226.17 21.2656H235.47C242.33 21.2656 247.91 26.4913 247.91 32.9156H241.64C241.64 29.7316 238.87 27.1375 235.47 27.1375H226.17V21.2656Z" fill="#BCE4FA"/>
<path d="M286.059 55.0637C288.313 55.0637 290.139 53.353 290.139 51.2428C290.139 49.1326 288.313 47.4219 286.059 47.4219C283.806 47.4219 281.979 49.1326 281.979 51.2428C281.979 53.353 283.806 55.0637 286.059 55.0637Z" fill="#BCE4FA"/>
<path d="M300.59 55.0637C302.843 55.0637 304.67 53.353 304.67 51.2428C304.67 49.1326 302.843 47.4219 300.59 47.4219C298.336 47.4219 296.51 49.1326 296.51 51.2428C296.51 53.353 298.336 55.0637 300.59 55.0637Z" fill="#BCE4FA"/>
<path d="M315.109 55.0637C317.363 55.0637 319.189 53.353 319.189 51.2428C319.189 49.1326 317.363 47.4219 315.109 47.4219C312.856 47.4219 311.029 49.1326 311.029 51.2428C311.029 53.353 312.856 55.0637 315.109 55.0637Z" fill="#BCE4FA"/>
<path d="M198.259 99.6787H207.559V105.551H198.259C194.859 105.551 192.089 108.145 192.089 111.329C192.089 114.513 194.859 117.107 198.259 117.107H244.769V122.979H198.259C191.399 122.979 185.819 117.753 185.819 111.329C185.819 104.904 191.399 99.6787 198.259 99.6787Z" fill="#BCE4FA"/>
<path d="M590.33 64.832C597.19 64.832 602.77 70.0577 602.77 76.482C602.77 82.9064 597.19 88.1321 590.33 88.1321C583.47 88.1321 577.89 82.9064 577.89 76.482C577.89 70.0577 583.47 64.832 590.33 64.832ZM590.33 82.2509C593.73 82.2509 596.5 79.6568 596.5 76.4727C596.5 73.2886 593.73 70.6945 590.33 70.6945C586.93 70.6945 584.16 73.2886 584.16 76.4727C584.16 79.6568 586.93 82.2509 590.33 82.2509Z" fill="#BCE4FA"/>
<path d="M822.89 47.4033H841.5V53.2752H822.89C814.36 53.2752 807.42 59.7744 807.42 67.7628H801.15C801.15 56.5342 810.9 47.4033 822.89 47.4033Z" fill="#BCE4FA"/>
<path d="M729.869 47.4033H785.689C797.679 47.4033 807.429 56.5342 807.429 67.7628C807.429 78.9913 797.679 88.1222 785.689 88.1222H748.479V82.2503H785.689C794.219 82.2503 801.159 75.7511 801.159 67.7628C801.159 59.7744 794.219 53.2752 785.689 53.2752H729.869C721.339 53.2752 714.399 59.7744 714.399 67.7628H708.129C708.129 56.5342 717.879 47.4033 729.869 47.4033Z" fill="#BCE4FA"/>
<path d="M525.209 12.5566H562.419V18.4285H525.209C516.679 18.4285 509.739 24.9278 509.739 32.9161C509.739 40.9044 516.679 47.4037 525.209 47.4037H581.029C589.559 47.4037 596.499 40.9044 596.499 32.9161H602.769C602.769 44.1447 593.019 53.2755 581.029 53.2755H525.209C513.219 53.2755 503.469 44.1447 503.469 32.9161C503.469 21.6875 513.219 12.5566 525.209 12.5566Z" fill="#BCE4FA"/>
<path d="M391.84 1.68457H398.11C398.11 9.67288 405.05 16.1722 413.58 16.1722V22.044C401.59 22.044 391.84 12.9132 391.84 1.68457Z" fill="#BCE4FA"/>
<path d="M577.89 111.319H584.16C584.16 114.503 586.93 117.098 590.33 117.098H599.63V122.969H590.33C583.47 122.969 577.89 117.744 577.89 111.319Z" fill="#BCE4FA"/>
<path d="M543.82 82.25V88.1218C535.29 88.1218 528.35 94.6211 528.35 102.609C528.35 110.598 535.29 117.097 543.82 117.097H571.73C575.13 117.097 577.9 114.503 577.9 111.319H584.17C584.17 117.743 578.59 122.969 571.73 122.969H543.82C531.83 122.969 522.08 113.838 522.08 102.609C522.08 91.3808 531.83 82.25 543.82 82.25Z" fill="#BCE4FA"/>
<path d="M708.13 67.7627H714.4V85.1909C714.4 96.4195 704.65 105.55 692.66 105.55C680.67 105.55 670.92 96.4195 670.92 85.1909H677.19C677.19 93.1792 684.13 99.6785 692.66 99.6785C701.19 99.6785 708.13 93.1792 708.13 85.1909V67.7627Z" fill="#BCE4FA"/>
<path d="M618.239 12.5566H646.149C658.139 12.5566 667.889 21.6875 667.889 32.9161C667.889 44.1447 658.139 53.2755 646.149 53.2755V47.4037C654.679 47.4037 661.619 40.9044 661.619 32.9161C661.619 24.9278 654.679 18.4285 646.149 18.4285H618.239V12.5566Z" fill="#BCE4FA"/>
<path d="M763.939 15.4971H770.209C770.209 23.4854 777.149 29.9847 785.679 29.9847H822.889V35.8565H785.679C773.689 35.8565 763.939 26.7257 763.939 15.4971Z" fill="#BCE4FA"/>
<path d="M618.24 12.5566V18.4285C609.71 18.4285 602.77 24.9278 602.77 32.9161H596.5C596.5 21.6875 606.25 12.5566 618.24 12.5566Z" fill="#BCE4FA"/>
<path d="M581.029 18.3068C583.283 18.3068 585.109 16.5962 585.109 14.4859C585.109 12.3757 583.283 10.665 581.029 10.665C578.776 10.665 576.949 12.3757 576.949 14.4859C576.949 16.5962 578.776 18.3068 581.029 18.3068Z" fill="#BCE4FA"/>
<path d="M692.66 54.1652C694.913 54.1652 696.74 52.4546 696.74 50.3443C696.74 48.2341 694.913 46.5234 692.66 46.5234C690.407 46.5234 688.58 48.2341 688.58 50.3443C688.58 52.4546 690.407 54.1652 692.66 54.1652Z" fill="#BCE4FA"/>
<path d="M649.51 96.5598C651.763 96.5598 653.59 94.8491 653.59 92.7389C653.59 90.6286 651.763 88.918 649.51 88.918C647.256 88.918 645.43 90.6286 645.43 92.7389C645.43 94.8491 647.256 96.5598 649.51 96.5598Z" fill="#BCE4FA"/>
<path d="M711.209 123.915C713.462 123.915 715.289 122.205 715.289 120.094C715.289 117.984 713.462 116.273 711.209 116.273C708.956 116.273 707.129 117.984 707.129 120.094C707.129 122.205 708.956 123.915 711.209 123.915Z" fill="#BCE4FA"/>
<path d="M794.99 19.3186C797.243 19.3186 799.07 17.6079 799.07 15.4977C799.07 13.3874 797.243 11.6768 794.99 11.6768C792.737 11.6768 790.91 13.3874 790.91 15.4977C790.91 17.6079 792.737 19.3186 794.99 19.3186Z" fill="#BCE4FA"/>
<path d="M757.779 -31C764.639 -31 770.219 -25.7743 770.219 -19.35V15.497H763.949V-19.35C763.949 -22.5341 761.179 -25.1282 757.779 -25.1282V-31Z" fill="#BCE4FA"/>
<path d="M475.56 36.5312H481.83C481.83 42.9556 476.25 48.1813 469.39 48.1813V42.3094C472.79 42.3094 475.56 39.7153 475.56 36.5312Z" fill="#BCE4FA"/>
<path d="M537.339 64.832H565.249V70.7039H537.339C533.939 70.7039 531.169 73.298 531.169 76.482H524.899C524.899 70.0577 530.479 64.832 537.339 64.832Z" fill="#BCE4FA"/>
<path d="M413.58 16.1621H469.4C476.26 16.1621 481.84 21.3878 481.84 27.8121V36.5215H475.57V27.8121C475.57 24.628 472.8 22.0339 469.4 22.0339H413.58V16.1621Z" fill="#BCE4FA"/>
<path d="M636.839 47.4033H646.139V53.2752H636.839C633.439 53.2752 630.669 55.8692 630.669 59.0533C630.669 62.2374 633.439 64.8315 636.839 64.8315H646.139V70.7033H636.839C629.979 70.7033 624.399 65.4777 624.399 59.0533C624.399 52.629 629.979 47.4033 636.839 47.4033Z" fill="#BCE4FA"/>
<path d="M683.36 64.832V70.7039C679.96 70.7039 677.19 73.298 677.19 76.482H670.92C670.92 70.0577 676.5 64.832 683.36 64.832Z" fill="#BCE4FA"/>
<path d="M664.75 64.832C671.61 64.832 677.19 70.0577 677.19 76.482V85.1915H670.92V76.482C670.92 73.298 668.15 70.7039 664.75 70.7039V64.832Z" fill="#BCE4FA"/>
<path d="M664.759 64.832H646.149V70.7039H664.759V64.832Z" fill="#BCE4FA"/>
<path d="M562.429 90.96H543.819V96.8318H562.429V90.96Z" fill="#BCE4FA"/>
<path d="M562.429 82.25H543.819V88.1218H562.429V82.25Z" fill="#BCE4FA"/>
<path d="M400.01 30.4062H406.28C406.28 32.504 405.68 34.48 404.64 36.1844H413.58C416.98 36.1844 419.75 33.5903 419.75 30.4062H426.02C426.02 36.8306 420.44 42.0563 413.58 42.0563H393.84V36.1844C397.24 36.1844 400.01 33.5903 400.01 30.4062Z" fill="#BCE4FA"/>
<path d="M428.289 120.974H422.019C422.019 118.876 422.619 116.9 423.659 115.196H414.719C411.319 115.196 408.549 117.79 408.549 120.974H402.279C402.279 114.55 407.859 109.324 414.719 109.324H434.459V115.196C431.059 115.196 428.289 117.79 428.289 120.974Z" fill="#BCE4FA"/>
<path d="M381.049 98.4619V104.334C377.649 104.334 374.879 106.928 374.879 110.112H368.609C368.609 103.688 374.189 98.4619 381.049 98.4619Z" fill="#BCE4FA"/>
<path d="M587.19 93.9004H593.46C593.46 100.325 587.88 105.55 581.02 105.55V99.6786C584.42 99.6786 587.19 97.0845 587.19 93.9004Z" fill="#BCE4FA"/>
<path d="M587.189 93.9004H593.459C593.459 97.0845 596.229 99.6786 599.629 99.6786V105.55C592.769 105.55 587.189 100.325 587.189 93.9004Z" fill="#BCE4FA"/>
<path d="M622.889 29.9756H646.149V35.8474H622.889C619.489 35.8474 616.719 38.4415 616.719 41.6256H610.449C610.449 35.2012 616.029 29.9756 622.889 29.9756Z" fill="#BCE4FA"/>
<path d="M801.15 102.609H807.42C807.42 110.598 814.36 117.097 822.89 117.097C831.42 117.097 838.36 110.598 838.36 102.609H844.63C844.63 113.838 834.88 122.969 822.89 122.969C810.9 122.969 801.15 113.838 801.15 102.609Z" fill="#BCE4FA"/>
<path d="M-11.0703 173.942L-7.15031 169.354C-0.490313 174.345 9.25969 173.334 14.5897 167.097C19.9197 160.86 18.8397 151.729 12.1797 146.737L16.0997 142.148C25.4597 149.163 26.9797 162.002 19.4897 170.768C11.9997 179.533 -1.71031 180.957 -11.0703 173.942Z" fill="#BCE4FA"/>
<path d="M-14.4609 145.323C-6.97094 136.558 6.73906 135.134 16.0991 142.149L12.1791 146.738C5.51906 141.746 -4.23094 142.757 -9.56094 148.994L-14.4609 145.323Z" fill="#BCE4FA"/>
<path d="M729.869 12.5566C741.859 12.5566 751.609 21.6875 751.609 32.9161H745.339C745.339 24.9278 738.399 18.4285 729.869 18.4285C721.339 18.4285 714.399 24.9278 714.399 32.9161H708.129C708.129 21.6875 717.879 12.5566 729.869 12.5566Z" fill="#BCE4FA"/>
<path d="M488 101.589V107.461C479.47 107.461 472.53 113.96 472.53 121.948H466.26C466.26 110.72 476.01 101.589 488 101.589Z" fill="#BCE4FA"/>
<path d="M488 101.589C499.99 101.589 509.74 110.72 509.74 121.948H503.47C503.47 113.96 496.53 107.461 488 107.461V101.589Z" fill="#BCE4FA"/>
<path d="M468.649 96.335V102.207C465.249 102.207 462.479 104.801 462.479 107.985H456.209C456.209 101.561 461.789 96.335 468.649 96.335Z" fill="#BCE4FA"/>
<path d="M454.7 96.335V102.207C451.3 102.207 448.53 104.801 448.53 107.985H442.26C442.26 101.561 447.84 96.335 454.7 96.335Z" fill="#BCE4FA"/>
<path d="M727.869 111.319H734.139C734.139 114.503 736.909 117.098 740.309 117.098V122.969C733.449 122.969 727.869 117.744 727.869 111.319Z" fill="#BCE4FA"/>
<path d="M746.469 111.319H752.739C752.739 114.503 755.509 117.098 758.909 117.098H786.819V122.969H758.909C752.049 122.969 746.469 117.744 746.469 111.319Z" fill="#BCE4FA"/>
<path d="M529.299 36.7365C531.552 36.7365 533.379 35.0259 533.379 32.9156C533.379 30.8054 531.552 29.0947 529.299 29.0947C527.045 29.0947 525.219 30.8054 525.219 32.9156C525.219 35.0259 527.045 36.7365 529.299 36.7365Z" fill="#BCE4FA"/>
<path d="M543.818 36.7365C546.072 36.7365 547.898 35.0259 547.898 32.9156C547.898 30.8054 546.072 29.0947 543.818 29.0947C541.565 29.0947 539.738 30.8054 539.738 32.9156C539.738 35.0259 541.565 36.7365 543.818 36.7365Z" fill="#BCE4FA"/>
<path d="M558.339 36.7365C560.592 36.7365 562.419 35.0259 562.419 32.9156C562.419 30.8054 560.592 29.0947 558.339 29.0947C556.085 29.0947 554.259 30.8054 554.259 32.9156C554.259 35.0259 556.085 36.7365 558.339 36.7365Z" fill="#BCE4FA"/>
<path d="M711.26 12.5566L731.4 12.6222L731.38 18.494L711.25 18.4285C702.73 18.4285 695.789 24.9278 695.789 32.9161H689.52C689.52 21.6875 699.27 12.5566 711.26 12.5566Z" fill="#BCE4FA"/>
<path d="M674.049 21.2656H683.349C690.209 21.2656 695.789 26.4913 695.789 32.9156H689.519C689.519 29.7316 686.749 27.1375 683.349 27.1375H674.049V21.2656Z" fill="#BCE4FA"/>
<path d="M733.949 71.5842C736.202 71.5842 738.029 69.8735 738.029 67.7633C738.029 65.6531 736.202 63.9424 733.949 63.9424C731.696 63.9424 729.869 65.6531 729.869 67.7633C729.869 69.8735 731.696 71.5842 733.949 71.5842Z" fill="#BCE4FA"/>
<path d="M748.469 71.5842C750.722 71.5842 752.549 69.8735 752.549 67.7633C752.549 65.6531 750.722 63.9424 748.469 63.9424C746.215 63.9424 744.389 65.6531 744.389 67.7633C744.389 69.8735 746.215 71.5842 748.469 71.5842Z" fill="#BCE4FA"/>
<path d="M762.999 71.5842C765.252 71.5842 767.079 69.8735 767.079 67.7633C767.079 65.6531 765.252 63.9424 762.999 63.9424C760.746 63.9424 758.919 65.6531 758.919 67.7633C758.919 69.8735 760.746 71.5842 762.999 71.5842Z" fill="#BCE4FA"/>
<path d="M356.239 99.1914H349.969V132.709H356.239V99.1914Z" fill="#BCE4FA"/>
<path d="M73.1991 139.499C75.4525 139.499 77.2791 137.789 77.2791 135.678C77.2791 133.568 75.4525 131.857 73.1991 131.857C70.9458 131.857 69.1191 133.568 69.1191 135.678C69.1191 137.789 70.9458 139.499 73.1991 139.499Z" fill="#BCE4FA"/>
<path d="M73.1991 189.761C75.4525 189.761 77.2791 188.05 77.2791 185.94C77.2791 183.83 75.4525 182.119 73.1991 182.119C70.9458 182.119 69.1191 183.83 69.1191 185.94C69.1191 188.05 70.9458 189.761 73.1991 189.761Z" fill="#BCE4FA"/>
<path d="M70.0694 160.813H76.3394C76.3394 167.238 70.7594 172.463 63.8994 172.463V166.592C67.2994 166.592 70.0694 163.998 70.0694 160.813Z" fill="#BCE4FA"/>
<path d="M70.0693 152.094H76.3393V160.803C76.3393 163.987 79.1093 166.581 82.5093 166.581V172.453C75.6493 172.453 70.0693 167.228 70.0693 160.803V152.094Z" fill="#BCE4FA"/>
<path d="M216.549 130.049H225.849C232.709 130.049 238.289 135.274 238.289 141.699H232.019C232.019 138.515 229.249 135.921 225.849 135.921H216.549V130.049Z" fill="#BCE4FA"/>
<path d="M216.549 130.049V135.921C213.149 135.921 210.379 138.515 210.379 141.699H204.109C204.109 135.274 209.689 130.049 216.549 130.049Z" fill="#BCE4FA"/>
<path d="M188.959 130.049V135.921C180.429 135.921 173.489 142.42 173.489 150.408H167.219C167.219 139.18 176.969 130.049 188.959 130.049Z" fill="#BCE4FA"/>
<path d="M151.75 138.758H161.05C167.91 138.758 173.49 143.983 173.49 150.408H167.22C167.22 147.224 164.45 144.63 161.05 144.63H151.75V138.758Z" fill="#BCE4FA"/>
<path d="M744.39 171.658C746.643 171.658 748.47 169.948 748.47 167.838C748.47 165.727 746.643 164.017 744.39 164.017C742.136 164.017 740.31 165.727 740.31 167.838C740.31 169.948 742.136 171.658 744.39 171.658Z" fill="#BCE4FA"/>
<path d="M729.869 171.658C732.122 171.658 733.949 169.948 733.949 167.838C733.949 165.727 732.122 164.017 729.869 164.017C727.616 164.017 725.789 165.727 725.789 167.838C725.789 169.948 727.616 171.658 729.869 171.658Z" fill="#BCE4FA"/>
<path d="M715.349 171.658C717.603 171.658 719.43 169.948 719.43 167.838C719.43 165.727 717.603 164.017 715.349 164.017C713.096 164.017 711.27 165.727 711.27 167.838C711.27 169.948 713.096 171.658 715.349 171.658Z" fill="#BCE4FA"/>
<path d="M729.869 130.049C736.729 130.049 742.309 135.274 742.309 141.699C742.309 148.123 736.729 153.349 729.869 153.349V147.477C733.269 147.477 736.039 144.883 736.039 141.699C736.039 138.515 733.269 135.921 729.869 135.921V130.049Z" fill="#BCE4FA"/>
<path d="M711.26 147.469H729.87V153.341H711.26C702.73 153.341 695.789 159.84 695.789 167.828C695.789 175.816 702.73 182.316 711.26 182.316V188.188C699.27 188.188 689.52 179.057 689.52 167.828C689.52 156.6 699.27 147.469 711.26 147.469Z" fill="#BCE4FA"/>
<path d="M616.09 96.8779H622.36V105.615C622.36 108.8 625.13 111.394 628.53 111.394V117.265C621.67 117.265 616.09 112.04 616.09 105.615V96.8779Z" fill="#BCE4FA"/>
<path d="M628.53 111.365C635.39 111.365 640.97 116.591 640.97 123.015C640.97 129.44 635.39 134.665 628.53 134.665C621.67 134.665 616.09 129.44 616.09 123.015C616.09 116.591 621.67 111.365 628.53 111.365ZM628.53 128.784C631.93 128.784 634.7 126.19 634.7 123.006C634.7 119.822 631.93 117.228 628.53 117.228C625.13 117.228 622.36 119.822 622.36 123.006C622.36 126.19 625.13 128.784 628.53 128.784Z" fill="#BCE4FA"/>
<path d="M447.66 132.99H453.93C453.93 136.174 456.7 138.768 460.1 138.768H469.4V144.64H460.1C453.24 144.64 447.66 139.415 447.66 132.99Z" fill="#BCE4FA"/>
<path d="M441.489 138.758H432.189V144.63H441.489V138.758Z" fill="#BCE4FA"/>
<path d="M447.659 132.99H453.929C453.929 139.415 448.349 144.64 441.489 144.64V138.768C444.889 138.768 447.659 136.174 447.659 132.99Z" fill="#BCE4FA"/>
<path d="M783.679 132.99H789.949C789.949 144.219 780.199 153.35 768.209 153.35V147.478C776.739 147.478 783.679 140.979 783.679 132.99Z" fill="#BCE4FA"/>
<path d="M765.079 132.99H771.349C771.349 144.219 761.599 153.35 749.609 153.35V147.478C758.139 147.478 765.079 140.979 765.079 132.99Z" fill="#BCE4FA"/>
<path d="M839.94 575.59H-10.0703V616.26H839.94V575.59Z" fill="#202549"/>
<path d="M349.793 214.5H348.119C348.02 214.019 347.847 213.596 347.6 213.232C347.357 212.867 347.06 212.561 346.709 212.314C346.363 212.062 345.978 211.873 345.555 211.747C345.133 211.621 344.692 211.558 344.233 211.558C343.396 211.558 342.638 211.77 341.959 212.192C341.284 212.615 340.747 213.238 340.347 214.061C339.951 214.885 339.753 215.894 339.753 217.091C339.753 218.287 339.951 219.297 340.347 220.12C340.747 220.944 341.284 221.567 341.959 221.989C342.638 222.412 343.396 222.624 344.233 222.624C344.692 222.624 345.133 222.561 345.555 222.435C345.978 222.309 346.363 222.122 346.709 221.875C347.06 221.623 347.357 221.315 347.6 220.95C347.847 220.581 348.02 220.159 348.119 219.682H349.793C349.667 220.388 349.437 221.02 349.104 221.578C348.772 222.136 348.358 222.61 347.863 223.001C347.368 223.388 346.813 223.683 346.196 223.885C345.585 224.088 344.93 224.189 344.233 224.189C343.054 224.189 342.006 223.901 341.089 223.325C340.171 222.75 339.449 221.931 338.923 220.869C338.397 219.808 338.134 218.548 338.134 217.091C338.134 215.634 338.397 214.374 338.923 213.312C339.449 212.251 340.171 211.432 341.089 210.857C342.006 210.281 343.054 209.993 344.233 209.993C344.93 209.993 345.585 210.094 346.196 210.297C346.813 210.499 347.368 210.796 347.863 211.187C348.358 211.574 348.772 212.046 349.104 212.604C349.437 213.157 349.667 213.789 349.793 214.5ZM356.491 224.216C355.555 224.216 354.734 223.993 354.028 223.548C353.326 223.103 352.778 222.48 352.382 221.679C351.991 220.878 351.795 219.943 351.795 218.872C351.795 217.793 351.991 216.85 352.382 216.045C352.778 215.24 353.326 214.615 354.028 214.169C354.734 213.724 355.555 213.501 356.491 213.501C357.426 213.501 358.245 213.724 358.947 214.169C359.653 214.615 360.202 215.24 360.593 216.045C360.989 216.85 361.187 217.793 361.187 218.872C361.187 219.943 360.989 220.878 360.593 221.679C360.202 222.48 359.653 223.103 358.947 223.548C358.245 223.993 357.426 224.216 356.491 224.216ZM356.491 222.786C357.202 222.786 357.786 222.603 358.245 222.239C358.704 221.875 359.044 221.396 359.264 220.802C359.484 220.208 359.595 219.565 359.595 218.872C359.595 218.179 359.484 217.534 359.264 216.936C359.044 216.337 358.704 215.854 358.245 215.485C357.786 215.116 357.202 214.932 356.491 214.932C355.78 214.932 355.195 215.116 354.737 215.485C354.278 215.854 353.938 216.337 353.718 216.936C353.497 217.534 353.387 218.179 353.387 218.872C353.387 219.565 353.497 220.208 353.718 220.802C353.938 221.396 354.278 221.875 354.737 222.239C355.195 222.603 355.78 222.786 356.491 222.786ZM365.21 217.766V224H363.618V213.636H365.156V215.256H365.291C365.534 214.729 365.903 214.307 366.397 213.987C366.892 213.663 367.531 213.501 368.314 213.501C369.015 213.501 369.629 213.645 370.156 213.933C370.682 214.217 371.091 214.648 371.384 215.229C371.676 215.804 371.822 216.533 371.822 217.415V224H370.23V217.523C370.23 216.709 370.018 216.074 369.596 215.62C369.173 215.161 368.592 214.932 367.855 214.932C367.346 214.932 366.892 215.042 366.492 215.262C366.096 215.483 365.783 215.804 365.554 216.227C365.325 216.65 365.21 217.163 365.21 217.766ZM378.915 228.102C378.146 228.102 377.485 228.003 376.931 227.805C376.378 227.612 375.917 227.356 375.548 227.036C375.184 226.721 374.894 226.384 374.678 226.024L375.946 225.134C376.09 225.322 376.272 225.538 376.493 225.781C376.713 226.029 377.015 226.242 377.397 226.422C377.784 226.607 378.29 226.699 378.915 226.699C379.752 226.699 380.442 226.496 380.986 226.092C381.531 225.687 381.803 225.053 381.803 224.189V222.084H381.668C381.551 222.273 381.384 222.507 381.169 222.786C380.957 223.06 380.651 223.305 380.251 223.521C379.855 223.732 379.32 223.838 378.645 223.838C377.809 223.838 377.057 223.64 376.392 223.244C375.73 222.848 375.206 222.273 374.82 221.517C374.437 220.761 374.246 219.844 374.246 218.764C374.246 217.703 374.433 216.778 374.806 215.991C375.179 215.199 375.699 214.588 376.365 214.156C377.03 213.72 377.8 213.501 378.672 213.501C379.347 213.501 379.882 213.614 380.278 213.839C380.678 214.059 380.984 214.311 381.196 214.594C381.411 214.873 381.578 215.103 381.695 215.283H381.857V213.636H383.395V224.297C383.395 225.188 383.193 225.912 382.788 226.469C382.388 227.032 381.848 227.443 381.169 227.704C380.494 227.97 379.743 228.102 378.915 228.102ZM378.861 222.408C379.5 222.408 380.04 222.261 380.48 221.969C380.921 221.677 381.256 221.256 381.486 220.707C381.715 220.159 381.83 219.502 381.83 218.737C381.83 217.991 381.717 217.332 381.492 216.76C381.268 216.189 380.935 215.741 380.494 215.418C380.053 215.094 379.509 214.932 378.861 214.932C378.186 214.932 377.624 215.103 377.174 215.445C376.729 215.786 376.394 216.245 376.169 216.821C375.949 217.397 375.838 218.036 375.838 218.737C375.838 219.457 375.951 220.093 376.176 220.647C376.405 221.195 376.742 221.627 377.188 221.942C377.638 222.252 378.195 222.408 378.861 222.408ZM386.31 224V213.636H387.848V215.202H387.956C388.145 214.689 388.487 214.273 388.982 213.953C389.477 213.634 390.034 213.474 390.655 213.474C390.772 213.474 390.918 213.477 391.094 213.481C391.269 213.486 391.402 213.492 391.492 213.501V215.121C391.438 215.107 391.314 215.087 391.121 215.06C390.932 215.029 390.732 215.013 390.52 215.013C390.016 215.013 389.567 215.118 389.171 215.33C388.779 215.537 388.469 215.825 388.24 216.194C388.015 216.558 387.902 216.974 387.902 217.442V224H386.31ZM396.429 224.243C395.772 224.243 395.176 224.119 394.641 223.872C394.106 223.62 393.681 223.258 393.366 222.786C393.051 222.309 392.893 221.733 392.893 221.058C392.893 220.464 393.01 219.983 393.244 219.614C393.478 219.241 393.791 218.949 394.182 218.737C394.574 218.526 395.005 218.368 395.478 218.265C395.954 218.157 396.433 218.071 396.915 218.009C397.545 217.928 398.055 217.867 398.446 217.826C398.842 217.781 399.13 217.707 399.31 217.604C399.494 217.5 399.587 217.32 399.587 217.064V217.01C399.587 216.344 399.404 215.827 399.04 215.458C398.68 215.089 398.134 214.905 397.401 214.905C396.64 214.905 396.044 215.071 395.613 215.404C395.181 215.737 394.877 216.092 394.702 216.47L393.19 215.93C393.46 215.301 393.82 214.81 394.27 214.46C394.724 214.104 395.219 213.857 395.754 213.717C396.294 213.573 396.825 213.501 397.347 213.501C397.679 213.501 398.062 213.542 398.494 213.623C398.93 213.699 399.35 213.859 399.755 214.102C400.165 214.345 400.504 214.711 400.774 215.202C401.044 215.692 401.179 216.349 401.179 217.172V224H399.587V222.597H399.506C399.398 222.821 399.218 223.062 398.966 223.319C398.714 223.575 398.379 223.793 397.961 223.973C397.542 224.153 397.032 224.243 396.429 224.243ZM396.672 222.812C397.302 222.812 397.832 222.689 398.264 222.441C398.701 222.194 399.029 221.875 399.249 221.483C399.474 221.092 399.587 220.68 399.587 220.249V218.791C399.519 218.872 399.371 218.946 399.141 219.014C398.916 219.077 398.656 219.133 398.359 219.183C398.066 219.228 397.781 219.268 397.502 219.304C397.227 219.335 397.005 219.362 396.834 219.385C396.42 219.439 396.033 219.527 395.673 219.648C395.318 219.765 395.03 219.943 394.81 220.181C394.594 220.415 394.486 220.734 394.486 221.139C394.486 221.692 394.69 222.111 395.1 222.394C395.514 222.673 396.038 222.812 396.672 222.812ZM408.592 213.636V214.986H403.222V213.636H408.592ZM404.787 211.153H406.379V221.031C406.379 221.481 406.445 221.818 406.575 222.043C406.71 222.264 406.881 222.412 407.088 222.489C407.299 222.561 407.522 222.597 407.756 222.597C407.931 222.597 408.075 222.588 408.188 222.57C408.3 222.547 408.39 222.529 408.457 222.516L408.781 223.946C408.673 223.987 408.523 224.027 408.329 224.067C408.136 224.112 407.891 224.135 407.594 224.135C407.144 224.135 406.703 224.038 406.271 223.845C405.844 223.651 405.489 223.357 405.205 222.961C404.926 222.565 404.787 222.066 404.787 221.463V211.153ZM417.519 219.763V213.636H419.111V224H417.519V222.246H417.411C417.168 222.772 416.79 223.22 416.277 223.588C415.765 223.953 415.117 224.135 414.334 224.135C413.687 224.135 413.111 223.993 412.607 223.71C412.103 223.422 411.707 222.99 411.419 222.414C411.132 221.834 410.988 221.103 410.988 220.222V213.636H412.58V220.114C412.58 220.869 412.791 221.472 413.214 221.922C413.642 222.372 414.186 222.597 414.847 222.597C415.243 222.597 415.645 222.495 416.055 222.293C416.469 222.091 416.815 221.78 417.094 221.362C417.377 220.944 417.519 220.411 417.519 219.763ZM423.62 210.182V224H422.028V210.182H423.62ZM429.586 224.243C428.929 224.243 428.333 224.119 427.798 223.872C427.263 223.62 426.838 223.258 426.523 222.786C426.208 222.309 426.051 221.733 426.051 221.058C426.051 220.464 426.168 219.983 426.402 219.614C426.635 219.241 426.948 218.949 427.339 218.737C427.731 218.526 428.163 218.368 428.635 218.265C429.112 218.157 429.591 218.071 430.072 218.009C430.702 217.928 431.212 217.867 431.604 217.826C431.999 217.781 432.287 217.707 432.467 217.604C432.652 217.5 432.744 217.32 432.744 217.064V217.01C432.744 216.344 432.562 215.827 432.197 215.458C431.838 215.089 431.291 214.905 430.558 214.905C429.798 214.905 429.202 215.071 428.77 215.404C428.338 215.737 428.034 216.092 427.859 216.47L426.348 215.93C426.617 215.301 426.977 214.81 427.427 214.46C427.881 214.104 428.376 213.857 428.911 213.717C429.451 213.573 429.982 213.501 430.504 213.501C430.837 213.501 431.219 213.542 431.651 213.623C432.087 213.699 432.508 213.859 432.913 214.102C433.322 214.345 433.661 214.711 433.931 215.202C434.201 215.692 434.336 216.349 434.336 217.172V224H432.744V222.597H432.663C432.555 222.821 432.375 223.062 432.123 223.319C431.871 223.575 431.536 223.793 431.118 223.973C430.699 224.153 430.189 224.243 429.586 224.243ZM429.829 222.812C430.459 222.812 430.99 222.689 431.421 222.441C431.858 222.194 432.186 221.875 432.407 221.483C432.631 221.092 432.744 220.68 432.744 220.249V218.791C432.676 218.872 432.528 218.946 432.299 219.014C432.074 219.077 431.813 219.133 431.516 219.183C431.224 219.228 430.938 219.268 430.659 219.304C430.385 219.335 430.162 219.362 429.991 219.385C429.577 219.439 429.19 219.527 428.831 219.648C428.475 219.765 428.187 219.943 427.967 220.181C427.751 220.415 427.643 220.734 427.643 221.139C427.643 221.692 427.848 222.111 428.257 222.394C428.671 222.673 429.195 222.812 429.829 222.812ZM441.75 213.636V214.986H436.379V213.636H441.75ZM437.944 211.153H439.537V221.031C439.537 221.481 439.602 221.818 439.732 222.043C439.867 222.264 440.038 222.412 440.245 222.489C440.456 222.561 440.679 222.597 440.913 222.597C441.088 222.597 441.232 222.588 441.345 222.57C441.457 222.547 441.547 222.529 441.615 222.516L441.939 223.946C441.831 223.987 441.68 224.027 441.487 224.067C441.293 224.112 441.048 224.135 440.751 224.135C440.301 224.135 439.86 224.038 439.429 223.845C439.001 223.651 438.646 223.357 438.363 222.961C438.084 222.565 437.944 222.066 437.944 221.463V211.153ZM444.145 224V213.636H445.737V224H444.145ZM444.955 211.909C444.644 211.909 444.377 211.803 444.152 211.592C443.931 211.381 443.821 211.126 443.821 210.83C443.821 210.533 443.931 210.279 444.152 210.067C444.377 209.856 444.644 209.75 444.955 209.75C445.265 209.75 445.53 209.856 445.751 210.067C445.976 210.279 446.088 210.533 446.088 210.83C446.088 211.126 445.976 211.381 445.751 211.592C445.53 211.803 445.265 211.909 444.955 211.909ZM452.864 224.216C451.928 224.216 451.107 223.993 450.401 223.548C449.699 223.103 449.151 222.48 448.755 221.679C448.364 220.878 448.168 219.943 448.168 218.872C448.168 217.793 448.364 216.85 448.755 216.045C449.151 215.24 449.699 214.615 450.401 214.169C451.107 213.724 451.928 213.501 452.864 213.501C453.8 213.501 454.618 213.724 455.32 214.169C456.026 214.615 456.575 215.24 456.966 216.045C457.362 216.85 457.56 217.793 457.56 218.872C457.56 219.943 457.362 220.878 456.966 221.679C456.575 222.48 456.026 223.103 455.32 223.548C454.618 223.993 453.8 224.216 452.864 224.216ZM452.864 222.786C453.575 222.786 454.159 222.603 454.618 222.239C455.077 221.875 455.417 221.396 455.637 220.802C455.857 220.208 455.968 219.565 455.968 218.872C455.968 218.179 455.857 217.534 455.637 216.936C455.417 216.337 455.077 215.854 454.618 215.485C454.159 215.116 453.575 214.932 452.864 214.932C452.153 214.932 451.568 215.116 451.11 215.485C450.651 215.854 450.311 216.337 450.091 216.936C449.87 217.534 449.76 218.179 449.76 218.872C449.76 219.565 449.87 220.208 450.091 220.802C450.311 221.396 450.651 221.875 451.11 222.239C451.568 222.603 452.153 222.786 452.864 222.786ZM461.583 217.766V224H459.991V213.636H461.529V215.256H461.664C461.907 214.729 462.276 214.307 462.77 213.987C463.265 213.663 463.904 213.501 464.687 213.501C465.388 213.501 466.002 213.645 466.529 213.933C467.055 214.217 467.464 214.648 467.757 215.229C468.049 215.804 468.195 216.533 468.195 217.415V224H466.603V217.523C466.603 216.709 466.391 216.074 465.969 215.62C465.546 215.161 464.965 214.932 464.228 214.932C463.72 214.932 463.265 215.042 462.865 215.262C462.469 215.483 462.156 215.804 461.927 216.227C461.698 216.65 461.583 217.163 461.583 217.766ZM478.446 215.957L477.015 216.362C476.925 216.124 476.793 215.892 476.617 215.667C476.446 215.438 476.212 215.249 475.916 215.1C475.619 214.952 475.239 214.878 474.775 214.878C474.141 214.878 473.613 215.024 473.19 215.316C472.771 215.604 472.562 215.971 472.562 216.416C472.562 216.812 472.706 217.125 472.994 217.354C473.282 217.583 473.732 217.775 474.343 217.928L475.882 218.305C476.808 218.53 477.499 218.874 477.953 219.338C478.408 219.797 478.635 220.388 478.635 221.112C478.635 221.706 478.464 222.237 478.122 222.705C477.785 223.172 477.312 223.541 476.705 223.811C476.098 224.081 475.392 224.216 474.586 224.216C473.529 224.216 472.654 223.987 471.962 223.528C471.269 223.069 470.83 222.399 470.646 221.517L472.157 221.139C472.301 221.697 472.573 222.115 472.974 222.394C473.379 222.673 473.907 222.812 474.559 222.812C475.302 222.812 475.891 222.655 476.327 222.34C476.768 222.021 476.988 221.638 476.988 221.193C476.988 220.833 476.862 220.532 476.611 220.289C476.359 220.042 475.972 219.857 475.45 219.736L473.723 219.331C472.774 219.106 472.076 218.757 471.631 218.285C471.19 217.808 470.97 217.212 470.97 216.497C470.97 215.912 471.134 215.395 471.462 214.945C471.795 214.496 472.247 214.142 472.819 213.886C473.394 213.63 474.047 213.501 474.775 213.501C475.801 213.501 476.606 213.726 477.191 214.176C477.78 214.626 478.198 215.22 478.446 215.957ZM483.137 210.182L483.002 220.114H481.436L481.301 210.182H483.137ZM482.219 224.108C481.886 224.108 481.601 223.989 481.362 223.75C481.124 223.512 481.005 223.226 481.005 222.893C481.005 222.561 481.124 222.275 481.362 222.037C481.601 221.798 481.886 221.679 482.219 221.679C482.552 221.679 482.838 221.798 483.076 222.037C483.314 222.275 483.434 222.561 483.434 222.893C483.434 223.114 483.377 223.316 483.265 223.501C483.157 223.685 483.011 223.834 482.826 223.946C482.646 224.054 482.444 224.108 482.219 224.108Z" fill="#202549"/>
</g>
<defs>
<clipPath id="clip0_429_1028">
<rect width="822.05" height="595.28" fill="white"/>
</clipPath>
</defs>
</svg>
