<svg width="271" height="71" viewBox="0 0 271 71" fill="none" xmlns="http://www.w3.org/2000/svg">
<path d="M237.194 16.4126C235.857 13.981 233.973 12.0966 231.541 10.7593C229.109 9.42195 226.374 8.75328 223.214 8.75328C220.174 8.75328 217.56 9.42195 215.311 10.7593C213.548 11.7927 212.211 13.1908 211.238 14.8929V9.6651H201.573V52.0951H211.846V27.2328C211.846 25.3484 212.211 23.768 212.94 22.3697C213.67 21.0324 214.703 19.999 215.98 19.2696C217.257 18.5401 218.776 18.1754 220.417 18.1754C222.058 18.1754 223.578 18.5401 224.856 19.2696C226.132 19.999 227.166 21.0324 227.893 22.3697C228.623 23.7072 228.99 25.3484 228.99 27.2328V52.0951H239.2V24.8013C239.2 21.6403 238.532 18.8441 237.194 16.4126Z" fill="#1C2649"/>
<path d="M137.502 9.6651V14.6497C136.165 13.0084 134.584 11.7319 132.821 10.7593C130.451 9.42195 127.654 8.75328 124.493 8.75328C120.603 8.75328 117.138 9.6651 114.038 11.4279C110.998 13.2516 108.567 15.6831 106.743 18.7833C104.981 21.8835 104.069 25.47 104.069 29.4819C104.069 33.4331 104.981 37.0197 106.743 40.1806C108.506 43.3416 110.998 45.834 114.099 47.6576C117.199 49.4812 120.725 50.3931 124.615 50.3931C127.776 50.3931 130.572 49.7243 133.004 48.4479C134.524 47.6576 135.8 46.6241 136.955 45.2868V49.9675C136.955 50.4539 136.955 50.94 136.894 51.3656C136.59 54.0403 135.557 55.7423 133.672 57.6267C129.113 62.1858 121.697 62.1858 117.138 57.6267L110.087 64.6781C114.281 68.8724 119.874 71 125.405 71C130.937 71 136.469 68.8724 140.724 64.6781C144.189 61.2133 146.56 56.8366 147.107 51.9127C147.167 51.244 147.228 50.6362 147.228 49.9067V9.60431H137.502V9.6651ZM135.557 35.4999C134.645 37.2021 133.308 38.5394 131.727 39.5121C130.147 40.4845 128.202 40.9709 126.013 40.9709C123.825 40.9709 121.88 40.4845 120.177 39.5121C118.475 38.5394 117.138 37.2021 116.226 35.4391C115.254 33.7371 114.767 31.7919 114.767 29.6035C114.767 27.4152 115.254 25.47 116.226 23.768C117.199 22.0658 118.536 20.7285 120.238 19.6951C121.94 18.7225 123.886 18.2362 126.013 18.2362C128.141 18.2362 130.025 18.7225 131.666 19.6951C133.308 20.6677 134.584 22.0051 135.557 23.768C136.529 25.47 137.016 27.4152 137.016 29.6035C136.955 31.7919 136.469 33.7979 135.557 35.4999Z" fill="#1C2649"/>
<path d="M0 52.3991V42.4297C5.59249 42.4297 10.2124 37.8709 10.2124 32.2175H20.1816C20.1816 43.4024 11.1242 52.3991 0 52.3991Z" fill="#1C2649"/>
<path d="M100.117 30.7586C100.117 29.3606 99.9958 28.0231 99.7526 26.7467C99.7526 26.6859 99.7526 26.6859 99.7526 26.6251C99.631 26.0779 99.5094 25.5916 99.3878 25.1052C99.327 24.9228 99.327 24.7407 99.2662 24.5583C99.1446 24.1327 99.0231 23.768 98.8407 23.4032C98.7191 23.0992 98.6583 22.7953 98.5369 22.5523C98.4153 22.2484 98.2938 22.0051 98.1722 21.762C97.9898 21.3973 97.8074 20.9717 97.625 20.607C97.5642 20.4246 97.4426 20.3031 97.3818 20.1207C97.1387 19.6344 96.8347 19.2089 96.5307 18.7226L96.4699 18.6618C95.7406 17.5676 94.8895 16.4734 93.8562 15.5008C90.8168 12.4614 87.048 10.4554 82.9144 9.60439C82.9144 9.60439 82.9144 9.60439 82.8537 9.60439C82.2457 9.48282 81.6378 9.42203 81.0298 9.30046C80.9082 9.30046 80.8475 9.23967 80.7261 9.23967C79.9966 9.17887 79.267 9.1181 78.5375 9.1181C77.8082 9.1181 77.0787 9.17887 76.3491 9.23967C76.2275 9.23967 76.167 9.30046 76.0454 9.30046C75.4375 9.36123 74.8295 9.48282 74.2216 9.60439C74.2216 9.60439 74.2216 9.60439 74.1608 9.60439C70.0272 10.4554 66.8056 12.4614 61.6386 17.5676L40.1197 39.0865C35.5606 43.6456 28.1444 43.6456 23.5853 39.0865C19.0262 34.5274 19.0262 27.1114 23.5853 22.5523C25.7737 20.3639 28.7524 19.1481 31.8524 19.1481C34.9527 19.1481 37.9314 20.3639 40.1197 22.5523L47.1709 15.5008C43.0982 11.428 37.6274 9.17887 31.8524 9.17887C26.0777 9.17887 20.6067 11.428 16.5339 15.5008C8.0844 23.9504 8.0844 37.6885 16.5339 46.1379C20.7283 50.3323 26.3208 52.4598 31.8524 52.4598C37.3842 52.4598 42.9158 50.3323 47.1709 46.1379L57.5658 35.8041C58.5383 39.7552 60.5445 43.2808 63.2798 46.0771C66.3192 49.1166 70.088 51.1226 74.2216 51.9735C74.8295 52.0951 75.4374 52.2167 76.1062 52.2775C76.2278 52.2775 76.2883 52.3382 76.4099 52.3382C77.1395 52.399 77.869 52.4598 78.5983 52.4598C84.3733 52.4598 89.8441 50.2107 93.917 46.1379C97.9898 41.8828 100.117 36.2902 100.117 30.7586ZM86.744 39.0257C83.9477 41.822 80.0573 42.9161 76.4099 42.2476C76.3491 42.2476 76.2883 42.2476 76.167 42.1868C75.9238 42.126 75.6806 42.0652 75.4374 42.0044C75.3159 41.9436 75.1943 41.9436 75.0727 41.8828C74.8903 41.822 74.7079 41.7612 74.5255 41.7004C74.3432 41.6396 74.1608 41.5788 73.9786 41.518C73.857 41.4572 73.7354 41.3964 73.6139 41.3357C73.3707 41.2141 73.1275 41.1533 72.9451 41.0317C72.8843 40.9709 72.8235 40.9709 72.7627 40.9101C69.2371 38.9041 66.8056 35.0745 66.8056 30.6978C66.8056 25.0444 70.8176 20.3639 76.1062 19.2697C76.1062 19.2697 76.1062 19.2697 76.167 19.2697C76.4707 19.2089 76.8355 19.1481 77.1395 19.0873C77.2002 19.0873 77.261 19.0873 77.3218 19.0873C77.6866 19.0265 78.1122 19.0265 78.5375 19.0265C78.9631 19.0265 79.3278 19.0265 79.7534 19.0873C79.8142 19.0873 79.875 19.0873 79.9358 19.0873C80.3005 19.1481 80.6045 19.1481 80.9082 19.2697C80.9082 19.2697 80.9082 19.2697 80.969 19.2697C84.0085 19.8775 86.6224 21.7012 88.2636 24.1935C88.446 24.4367 88.5676 24.6799 88.75 24.9839C88.8108 25.0444 88.8716 25.1052 88.8716 25.2268C88.9932 25.4092 89.054 25.6524 89.1755 25.8955C89.2363 26.0171 89.2971 26.1995 89.3579 26.3211C89.4187 26.5035 89.4795 26.6251 89.5403 26.8075C89.6011 26.9898 89.7225 27.233 89.7833 27.4152C89.8441 27.5368 89.8441 27.6583 89.8441 27.7191C89.9049 27.9623 89.9657 28.2663 90.0265 28.5095C90.0265 28.5703 90.0265 28.5703 90.0265 28.6311C90.6344 32.2782 89.6011 36.2294 86.744 39.0257Z" fill="#1C2649"/>
<path d="M193.852 21.519C192.941 19.0267 191.542 16.8384 189.78 14.9539C188.017 13.0087 185.889 11.5498 183.336 10.4556C180.844 9.36144 177.865 8.81436 174.583 8.81436C170.571 8.81436 166.984 9.78695 163.823 11.6714C160.662 13.6166 158.109 16.2305 156.286 19.513C154.401 22.7955 153.489 26.5645 153.489 30.8804C153.489 33.008 153.732 35.014 154.219 36.8984C155.13 40.8495 157.076 44.4361 159.994 47.3538C164.188 51.5482 169.78 53.6757 175.312 53.6757C180.844 53.6757 186.375 51.5482 190.631 47.3538L183.579 40.3024C179.02 44.8615 171.604 44.8615 167.045 40.3024C165.282 38.5396 164.188 36.3512 163.823 33.9197H194.764C194.947 33.312 195.129 32.5824 195.19 31.8529C195.25 31.1236 195.311 30.3333 195.311 29.543C195.25 26.6253 194.764 23.9506 193.852 21.519ZM164.37 25.9566C164.553 25.0447 164.796 24.2546 165.1 23.4642C165.951 21.4582 167.227 19.8777 168.869 18.7836C170.51 17.6894 172.455 17.1423 174.583 17.1423C176.832 17.1423 178.716 17.6894 180.297 18.7836C181.877 19.8777 183.032 21.3366 183.701 23.2211C184.005 24.0722 184.187 24.9839 184.248 25.9566H164.37Z" fill="#1C2649"/>
<path d="M260.78 32.4606V18.7835H270.933V9.66528H260.78V0H250.751V3.28254C250.751 5.34933 250.203 6.92982 249.049 8.024C247.955 9.11818 246.313 9.66528 244.245 9.66528H243.456V18.7835H250.689V32.2785C250.689 43.4027 259.748 52.3993 270.871 52.3993V42.43C265.401 42.4907 260.842 37.9924 260.78 32.4606Z" fill="#1C2649"/>
</svg>
